<svg width="300" height="250" viewBox="0 0 85 81" fill="none" xmlns="http://www.w3.org/2000/svg">
<path d="M20.3745 4.86845C17.5279 8.77915 20.8656 15.1193 16.6418 18.0605C12.5302 20.9235 7.47929 16.2306 3.60441 18.6951C-2.14377 22.351 -1.09404 39.0795 7.31011 49.4734C9.83753 52.5991 11.9493 53.8154 12.8846 57.3505C14.893 64.9412 7.83456 69.4567 9.17776 73.211C12.2022 81.6642 58.7157 88.7574 77.379 63.3527C86.0955 51.4876 87.3997 34.3543 79.6117 21.3415C65.539 -2.17249 26.7617 -3.90643 20.3745 4.86845Z" fill="#F4F7FA"/>
<path d="M26.6461 44.8875L25.2931 44.8766C25.1841 44.2889 25.0252 43.7173 24.8154 43.1681L25.989 42.5301C26.3092 42.3561 26.4189 41.9646 26.2341 41.6557L25.077 39.7217C24.8917 39.4121 24.4813 39.3016 24.1601 39.4752L22.971 40.1176C22.5747 39.6637 22.1384 39.2421 21.6664 38.8586L22.3562 37.7261C22.5422 37.4207 22.4318 37.0253 22.1096 36.8429L20.0907 35.6998C19.7673 35.5167 19.3535 35.616 19.1665 35.922L18.4723 37.0579C17.8975 36.851 17.2983 36.6917 16.6812 36.58V35.2494C16.6812 34.8922 16.3768 34.5977 16.0011 34.5916L13.6465 34.5536C13.2692 34.5475 12.9631 34.833 12.9631 35.1912V36.5258C12.3417 36.6198 11.7373 36.7624 11.1563 36.9538L10.4532 35.79C10.2636 35.4762 9.84351 35.3632 9.51473 35.5377L7.45506 36.6313C7.12509 36.8065 7.01192 37.2036 7.20253 37.5179L7.90829 38.6822C7.42543 39.0579 6.97862 39.4736 6.57201 39.9236L5.34926 39.2428C5.01819 39.0584 4.59457 39.1602 4.40325 39.4702L3.20529 41.4109C3.01346 41.7216 3.12729 42.1227 3.45937 42.3065L4.67347 42.9786C4.45673 43.5328 4.29251 44.1111 4.17991 44.7068L2.77769 44.6955C2.39385 44.6924 2.08246 44.9828 2.08246 45.3442V47.6041C2.08246 47.9654 2.39385 48.26 2.77769 48.262L4.16879 48.2693C4.27821 48.87 4.4407 49.4535 4.6554 50.0139L3.4594 50.6601C3.12732 50.8395 3.01349 51.239 3.20532 51.5522L4.40328 53.509C4.59463 53.8215 5.01822 53.9288 5.34929 53.7489L6.53622 53.1038C6.94539 53.5668 7.39695 53.9944 7.88447 54.3825L7.20256 55.4983C7.01195 55.8102 7.12509 56.2087 7.45509 56.3883L9.51476 57.5092C9.84354 57.6882 10.2636 57.5807 10.4532 57.2694L11.1266 56.1639C11.7166 56.3679 12.3312 56.5213 12.9632 56.6253V57.9016C12.9632 58.2598 13.2692 58.5494 13.6465 58.5483L16.0011 58.5416C16.3769 58.5405 16.6813 58.25 16.6813 57.8928V56.6203C17.3088 56.5151 17.918 56.3608 18.5017 56.1567L19.1666 57.2533C19.3535 57.5616 19.7673 57.6665 20.0907 57.4877L22.1096 56.3714C22.4318 56.1932 22.5422 55.7994 22.3562 55.4915L21.6898 54.3885C22.1664 54.0053 22.6072 53.5836 23.0061 53.1274L24.1602 53.7664C24.4813 53.9442 24.8918 53.8392 25.077 53.532L26.2342 51.6134C26.419 51.3069 26.3093 50.914 25.9891 50.7357L24.833 50.0919C25.0408 49.5423 25.198 48.9697 25.3039 48.3801L26.6462 48.3871C27.0155 48.389 27.3148 48.1035 27.3148 47.7493V45.5342C27.3148 45.18 27.0155 44.8904 26.6461 44.8875ZM14.8249 40.0464C18.6157 40.0912 21.6721 43.0401 21.6721 46.6332C21.6721 50.2263 18.6157 53.1347 14.8249 53.1293C11.0112 53.1239 7.90252 50.1746 7.90252 46.542C7.90252 42.9094 11.0112 40.0014 14.8249 40.0464Z" fill="url(#paint0_linear_50_2467)"/>
<path d="M41.4852 19.3067L40.2608 19.2745C40.1621 18.7545 40.0182 18.2478 39.8281 17.7599L40.8908 17.218C41.1806 17.0702 41.2798 16.7273 41.1125 16.4517L40.065 14.7257C39.8973 14.4492 39.5254 14.3441 39.2343 14.4911L38.156 15.0358C37.7963 14.6277 37.4003 14.2474 36.9716 13.8998L37.598 12.9132C37.7668 12.6472 37.6666 12.2961 37.3741 12.1287L35.5393 11.0787C35.2451 10.9102 34.8685 10.9897 34.6983 11.2563L34.0662 12.2467C33.5426 12.0523 32.9964 11.8995 32.4336 11.7883V10.6109C32.4336 10.2948 32.1559 10.0278 31.813 10.0146L29.6616 9.93203C29.3164 9.91876 29.0363 10.1655 29.0363 10.483V11.6658C28.4675 11.7367 27.9139 11.8511 27.3815 12.0093L26.7368 10.9626C26.5629 10.6802 26.1775 10.5713 25.8758 10.7195L23.9835 11.6488C23.68 11.7978 23.576 12.1484 23.7513 12.4315L24.4002 13.4796C23.9563 13.8041 23.5453 14.1649 23.1713 14.5571L22.0454 13.9286C21.7404 13.7583 21.35 13.8406 21.1736 14.1127L20.0685 15.8173C19.8915 16.0904 19.9966 16.4494 20.303 16.619L21.4227 17.2387C21.2229 17.7278 21.0715 18.2394 20.9676 18.7675L19.6738 18.7335C19.3194 18.7242 19.0317 18.9775 19.0317 19.2993V21.3117C19.0317 21.6335 19.3194 21.9007 19.6738 21.9086L20.9574 21.9369C21.0583 22.473 21.2081 22.9946 21.406 23.4964L20.303 24.0535C19.9966 24.2083 19.8915 24.5623 20.0685 24.8439L21.1736 26.6019C21.35 26.8826 21.7404 26.9838 22.0454 26.8282L23.1383 26.2709C23.5148 26.688 23.9301 27.0741 24.3783 27.4255L23.7513 28.4078C23.576 28.6824 23.6801 29.038 23.9836 29.2017L25.8758 30.2226C26.1775 30.3853 26.563 30.295 26.7369 30.0211L27.3543 29.0486C27.8949 29.237 28.4579 29.3807 29.0364 29.4808V30.6119C29.0364 30.9295 29.3164 31.1897 29.6616 31.1931L31.813 31.2146C32.1559 31.218 32.4336 30.9645 32.4336 30.6484V29.5224C33.006 29.437 33.5613 29.3082 34.093 29.1349L34.6984 30.1126C34.8686 30.3874 35.2451 30.485 35.5394 30.3309L37.3741 29.3696C37.6666 29.2163 37.7668 28.87 37.598 28.5959L36.9928 27.6134C37.4257 27.2814 37.8258 26.915 38.1878 26.5178L39.2344 27.0971C39.5255 27.2582 39.8973 27.1711 40.0651 26.9028L41.1126 25.2274C41.2798 24.9599 41.1806 24.6122 40.8908 24.4504L39.844 23.8659C40.0323 23.3843 40.1747 22.8818 40.2705 22.3636L41.4853 22.3904C41.8193 22.3978 42.0899 22.1509 42.0899 21.8388V19.8876C42.0899 19.5755 41.8193 19.3155 41.4852 19.3067ZM30.7388 14.8211C34.1969 14.9315 36.9768 17.5923 36.9768 20.7651C36.9768 23.9378 34.1969 26.4643 30.7388 26.4076C27.2485 26.3504 24.3949 23.6879 24.3949 20.4612C24.3949 17.2344 27.2485 14.7097 30.7388 14.8211Z" fill="url(#paint1_linear_50_2467)"/>
<path opacity="0.74" d="M30.7389 3.03407C20.061 2.52466 11.178 10.1663 11.178 20.1155C11.178 30.0648 20.061 38.1361 30.7389 38.1432C41.1197 38.1501 49.3255 30.4919 49.3255 21.0382C49.3255 11.5845 41.1197 3.5293 30.7389 3.03407ZM30.7389 33.9455C22.6421 33.8945 15.9482 27.7539 15.9482 20.2309C15.9482 12.708 22.6421 6.89113 30.7389 7.23185C38.6637 7.56535 44.9656 13.6966 44.9656 20.9327C44.9656 28.1689 38.6637 33.9953 30.7389 33.9455Z" fill="white"/>
<path d="M17.7669 26.756L13.6581 28.8391C15.2584 31.4701 17.5484 33.698 20.2914 35.3138L22.6321 31.6417C20.6168 30.402 18.938 28.7243 17.7669 26.756Z" fill="url(#paint2_linear_50_2467)"/>
<path d="M42.4396 13.3433L46.2582 11.4121C44.6921 9.15416 42.5917 7.2226 40.1175 5.78345L37.8862 9.28838C39.7003 10.3303 41.2541 11.7179 42.4396 13.3433Z" fill="url(#paint3_linear_50_2467)"/>
<path d="M18.6594 12.5245C19.9187 10.9373 21.557 9.63372 23.4519 8.71524L21.1185 4.9364C18.4972 6.19197 16.2436 8.00882 14.5461 10.2306L18.6594 12.5245Z" fill="url(#paint4_linear_50_2467)"/>
<path d="M15.9482 20.2308C15.9482 20.0699 15.9556 19.9108 15.9617 19.7513L11.1854 19.6328C11.1806 19.7931 11.178 19.954 11.178 20.1155C11.178 22.9762 11.9216 25.6932 13.2391 28.1114L17.3653 26.0246C16.4585 24.2582 15.9482 22.2939 15.9482 20.2308Z" fill="url(#paint5_linear_50_2467)"/>
<path opacity="0.25" d="M44.9656 20.9327C44.9656 22.9172 44.4928 24.7883 43.6497 26.461L47.4548 28.583C48.6528 26.3147 49.3254 23.7564 49.3254 21.0381C49.3254 20.8847 49.3231 20.7318 49.3188 20.5792L44.9531 20.4708C44.9588 20.6245 44.9656 20.7779 44.9656 20.9327Z" fill="url(#paint6_linear_50_2467)"/>
<path opacity="0.25" d="M43.275 27.1553C42.1779 29.0283 40.5936 30.6196 38.6732 31.7906L40.9018 35.4044C43.4789 33.8668 45.6027 31.7558 47.072 29.2681L43.275 27.1553Z" fill="url(#paint7_linear_50_2467)"/>
<path d="M42.9012 14.0135C43.9928 15.713 44.6967 17.6411 44.9014 19.689L49.2781 19.8023C49.0685 17.0196 48.1568 14.3951 46.7039 12.0856L42.9012 14.0135Z" fill="url(#paint8_linear_50_2467)"/>
<path opacity="0.25" d="M30.3067 33.9326C27.8017 33.8492 25.441 33.1835 23.3821 32.0723L21.0487 35.7377C23.8043 37.2048 26.9634 38.0672 30.3067 38.1378L30.3067 33.9326Z" fill="url(#paint9_linear_50_2467)"/>
<path opacity="0.25" d="M37.9534 32.1992C35.9626 33.2599 33.6532 33.8866 31.1706 33.938V38.1384C34.4765 38.0728 37.5469 37.2309 40.1837 35.8111L37.9534 32.1992Z" fill="url(#paint10_linear_50_2467)"/>
<path d="M24.2275 8.36586C26.0779 7.5989 28.1383 7.19083 30.3067 7.22352V3.01829C27.3015 2.93647 24.4449 3.50145 21.8961 4.58548L24.2275 8.36586Z" fill="url(#paint11_linear_50_2467)"/>
<path d="M16.0176 18.9414C16.2386 16.8251 16.9969 14.8687 18.1668 13.1839L14.0602 10.8988C12.4681 13.2081 11.4624 15.9028 11.2304 18.8175L16.0176 18.9414Z" fill="url(#paint12_linear_50_2467)"/>
<path d="M31.1706 7.25992C33.3214 7.40853 35.3423 7.98189 37.1386 8.88511L39.3769 5.37381C36.9284 4.08435 34.1449 3.26241 31.1706 3.05957V7.25992Z" fill="url(#paint13_linear_50_2467)"/>
<path d="M10.8827 27.3632L10.2854 27.3679C10.2374 27.1185 10.1672 26.8763 10.0747 26.644L10.5926 26.3641C10.734 26.2877 10.7824 26.1203 10.7008 25.99L10.1901 25.1751C10.1083 25.0446 9.92724 25.0007 9.78559 25.0769L9.26123 25.3591C9.08649 25.1688 8.89419 24.9927 8.68618 24.833L8.99018 24.3461C9.07216 24.2147 9.02353 24.0474 8.88146 23.9723L7.99208 23.5015C7.84965 23.4262 7.66746 23.4716 7.58517 23.603L7.27963 24.0913C7.02671 24.0077 6.76315 23.9445 6.49174 23.9018V23.3363C6.49174 23.1845 6.3579 23.0618 6.19271 23.0621L5.15811 23.0643C4.99238 23.0646 4.85801 23.1883 4.85801 23.3404V23.907C4.5852 23.9517 4.31994 24.0168 4.065 24.1025L3.75655 23.6139C3.67337 23.4822 3.48915 23.4375 3.345 23.514L2.44233 23.9937C2.29777 24.0704 2.24824 24.2397 2.33171 24.3716L2.64091 24.8601C2.4294 25.0231 2.23367 25.2026 2.05561 25.3965L1.52028 25.1167C1.37535 25.041 1.19 25.0872 1.10626 25.2201L0.582257 26.0512C0.498396 26.1843 0.548159 26.3534 0.693377 26.4289L1.22446 26.7053C1.12963 26.9417 1.05781 27.1879 1.00852 27.4412L0.395242 27.446C0.22743 27.4474 0.0913086 27.5725 0.0913086 27.7256V28.683C0.0913086 28.8362 0.22743 28.9589 0.395242 28.9573L1.00364 28.9512C1.05153 29.2051 1.12261 29.4514 1.21655 29.6875L0.693377 29.969C0.548159 30.0472 0.498396 30.2172 0.582257 30.3487L1.10626 31.1706C1.19 31.3019 1.37535 31.3448 1.52028 31.2665L2.03988 30.9857C2.21908 31.1795 2.41685 31.3582 2.63047 31.5199L2.33171 31.9972C2.24824 32.1306 2.29777 32.2989 2.44233 32.3731L3.345 32.8367C3.48915 32.9107 3.67337 32.8627 3.75655 32.7295L4.05195 32.2564C4.31082 32.3395 4.58059 32.4011 4.85801 32.4415V32.9834C4.85801 33.1356 4.99238 33.2568 5.15811 33.2541L6.19271 33.2379C6.3579 33.2353 6.49174 33.1102 6.49174 32.9584V32.4177C6.76773 32.3692 7.03575 32.3001 7.29256 32.2099L7.58517 32.6722C7.66746 32.8022 7.84965 32.8444 7.99208 32.7665L8.88146 32.28C9.0235 32.2023 9.07216 32.034 8.99018 31.9042L8.69647 31.4389C8.90652 31.273 9.10076 31.0909 9.27663 30.8944L9.78559 31.1591C9.92727 31.2329 10.1084 31.1857 10.1901 31.0538L10.7008 30.2297C10.7824 30.0981 10.734 29.9315 10.5926 29.8576L10.0824 29.591C10.1741 29.3557 10.2435 29.1109 10.2902 28.8592L10.8827 28.8534C11.0458 28.8517 11.178 28.7281 11.178 28.5773V27.634C11.178 27.4832 11.0458 27.3619 10.8827 27.3632ZM5.67575 25.3884C7.34274 25.3797 8.68868 26.6117 8.68868 28.1402C8.68868 29.6686 7.34274 30.9246 5.67575 30.9457C4.00129 30.9668 2.63838 29.7349 2.63838 28.1941C2.63835 26.6533 4.00126 25.3971 5.67575 25.3884Z" fill="url(#paint14_linear_50_2467)"/>
<path d="M59.2311 73.1033C58.1699 72.7655 57.3767 71.9012 57.1531 70.8389L55.6085 63.5028L42.3962 63.9531L40.7701 71.5956C40.5424 72.6659 41.454 73.7398 42.5039 74.134L48.0317 76.2096C49.0598 76.5956 50.1649 76.7494 51.2633 76.6592L62.9455 75.7001C63.287 75.6721 63.5609 75.4145 63.6006 75.084C63.6404 74.7535 63.8797 74.3824 63.554 74.2787L59.2311 73.1033Z" fill="url(#paint15_linear_50_2467)"/>
<path d="M59.3618 72.657C58.3017 72.3235 57.5093 71.4701 57.2859 70.4211L55.7429 63.1772L42.8527 63.6223L41.2283 71.1688C41.0008 72.2256 41.6027 73.2855 42.6515 73.6747L48.1737 75.7242C49.2008 76.1054 50.3048 76.2573 51.4022 76.1682L63.0725 75.2212C63.4137 75.1935 63.6873 74.9391 63.727 74.6128C63.7667 74.2864 63.5615 73.9784 63.2362 73.876L59.3618 72.657Z" fill="url(#paint16_linear_50_2467)"/>
<path d="M15.3987 68.3786C13.9659 68.4606 12.7937 67.5686 12.7937 66.3898V23.9021C12.7937 22.7233 13.9659 21.8129 15.3987 21.8725L81.9466 26.2938C82.9985 26.3375 83.5629 25.5226 83.5629 26.5252V62.6606C83.5629 63.6632 82.7111 64.5276 81.6592 64.5878L15.3987 68.3786Z" fill="url(#paint17_linear_50_2467)"/>
<path d="M15.9941 68.3786C14.5613 68.4606 13.3892 67.5686 13.3892 66.3898V23.9021C13.3892 22.7233 14.5613 21.8129 15.9941 21.8725L82.2547 24.6278C83.3066 24.6715 84.1584 25.5226 84.1584 26.5252V62.6606C84.1584 63.6632 83.3066 64.5276 82.2547 64.5878L15.9941 68.3786Z" fill="url(#paint18_linear_50_2467)"/>
<path opacity="0.3" d="M82.2547 25.4781L15.9942 22.8622C15.2282 22.8319 14.6054 23.3176 14.6054 23.9471V56.9913V66.3256C14.6054 66.9551 15.2282 67.431 15.9942 67.3888L82.2547 63.7373C82.8185 63.7063 83.2745 63.2451 83.2745 62.7071V54.4467V26.4924C83.2745 25.9544 82.8185 25.5004 82.2547 25.4781Z" fill="#D8DEE8"/>
<path d="M81.7624 60.6798L16.7123 63.7613C16.0295 63.7937 15.4746 63.3605 15.4746 62.7938V24.5038C15.4746 23.9371 16.0295 23.4974 16.7123 23.5217L81.7624 25.8389C82.2729 25.8571 82.6858 26.2677 82.6858 26.7561V59.7517C82.6858 60.2401 82.2729 60.6556 81.7624 60.6798Z" fill="url(#paint19_linear_50_2467)"/>
<path opacity="0.6" d="M32.9399 27.5655L18.084 27.1462V25.7869L32.9399 26.248V27.5655Z" fill="white"/>
<path opacity="0.36" d="M39.9361 27.3869L36.5043 27.2872V26.3585L39.9361 26.465V27.3869Z" fill="white"/>
<path opacity="0.36" d="M39.9361 28.6676L36.5043 28.5775V27.6488L39.9361 27.7458V28.6676Z" fill="white"/>
<path d="M57.0385 29.1169L43.7244 28.7672V27.8529L57.0385 28.2292V29.1169Z" fill="url(#paint20_linear_50_2467)"/>
<path opacity="0.5" d="M59.2217 30.4014L46.04 30.0918V29.1821L59.2217 29.5181V30.4014Z" fill="url(#paint21_linear_50_2467)"/>
<path opacity="0.5" d="M59.2217 31.6288L46.04 31.3557V30.446L59.2217 30.7455V31.6288Z" fill="url(#paint22_linear_50_2467)"/>
<path opacity="0.6" d="M59.2217 32.8561L46.04 32.6196V31.71L59.2217 31.9728V32.8561Z" fill="white"/>
<path opacity="0.36" d="M39.9361 29.9484L36.5043 29.8678V28.9391L39.9361 29.0266V29.9484Z" fill="white"/>
<path opacity="0.36" d="M39.9361 31.2293L36.5043 31.1582V30.2295L39.9361 30.3074V31.2293Z" fill="white"/>
<path opacity="0.36" d="M39.9361 32.51L36.5043 32.4485V31.5198L39.9361 31.5882V32.51Z" fill="white"/>
<path opacity="0.36" d="M39.9361 33.7908L36.5043 33.7387V32.8101L39.9361 32.869V33.7908Z" fill="white"/>
<path opacity="0.6" d="M49.1323 33.9304L40.685 33.8023V32.882L49.1323 33.0269V33.9304Z" fill="white"/>
<path opacity="0.36" d="M39.9361 35.0717L36.5043 35.0292V34.1005L39.9361 34.1499V35.0717Z" fill="white"/>
<path opacity="0.36" d="M39.9361 36.3524L36.5043 36.3194V35.3907L39.9361 35.4306V36.3524Z" fill="white"/>
<path opacity="0.36" d="M39.9361 37.6332L36.5043 37.6097V36.681L39.9361 36.7114V37.6332Z" fill="white"/>
<path opacity="0.5" d="M53.09 35.2346L43.7244 35.1185V34.2042L53.09 34.339V35.2346Z" fill="url(#paint23_linear_50_2467)"/>
<path opacity="0.6" d="M57.9557 36.5257L46.04 36.4111V35.5015L57.9557 35.6399V36.5257Z" fill="white"/>
<path d="M57.9557 37.7565L46.04 37.6749V36.7653L57.9557 36.8706V37.7565Z" fill="url(#paint24_linear_50_2467)"/>
<path opacity="0.36" d="M39.9361 38.914L36.5043 38.9V37.9713L39.9361 37.9921V38.914Z" fill="white"/>
<path opacity="0.36" d="M39.9361 40.1947L36.5043 40.1903V39.2616L39.9361 39.2729V40.1947Z" fill="white"/>
<path opacity="0.36" d="M39.9361 41.4755L36.5043 41.4806V40.5519L39.9361 40.5536V41.4755Z" fill="white"/>
<path opacity="0.36" d="M39.9361 42.7563L36.5043 42.7709V41.8422L39.9361 41.8345V42.7563Z" fill="white"/>
<path opacity="0.36" d="M39.9361 44.0371L36.5043 44.0612V43.1325L39.9361 43.1152V44.0371Z" fill="white"/>
<path opacity="0.36" d="M39.9361 45.3179L36.5043 45.3516V44.4229L39.9361 44.3961V45.3179Z" fill="white"/>
<path opacity="0.36" d="M39.9361 46.5986L36.5043 46.6418V45.7131L39.9361 45.6768V46.5986Z" fill="white"/>
<path opacity="0.36" d="M39.9361 47.8795L36.5043 47.9322V47.0035L39.9361 46.9576V47.8795Z" fill="white"/>
<path opacity="0.36" d="M39.9361 49.1602L36.5043 49.2224V48.2938L39.9361 48.2384V49.1602Z" fill="white"/>
<path opacity="0.36" d="M39.9361 50.4411L36.5043 50.5128V49.5842L39.9361 49.5193V50.4411Z" fill="white"/>
<path opacity="0.36" d="M39.9361 51.7218L36.5043 51.803V50.8743L39.9361 50.7999V51.7218Z" fill="white"/>
<path opacity="0.36" d="M39.9361 53.0026L36.5043 53.0934V52.1647L39.9361 52.0808V53.0026Z" fill="white"/>
<path opacity="0.36" d="M39.9361 54.2834L36.5043 54.3837V53.455L39.9361 53.3616V54.2834Z" fill="white"/>
<path opacity="0.36" d="M39.9361 55.5642L36.5043 55.674V54.7453L39.9361 54.6423V55.5642Z" fill="white"/>
<path opacity="0.36" d="M39.9361 56.8449L36.5043 56.9642V56.0356L39.9361 55.9231V56.8449Z" fill="white"/>
<path opacity="0.36" d="M39.9361 58.1258L36.5043 58.2547V57.326L39.9361 57.204V58.1258Z" fill="white"/>
<path opacity="0.36" d="M39.9361 59.4066L36.5043 59.5449V58.6163L39.9361 58.4847V59.4066Z" fill="white"/>
<path opacity="0.36" d="M39.9361 60.6872L36.5043 60.8351V59.9064L39.9361 59.7654V60.6872Z" fill="white"/>
<path opacity="0.5" d="M50.0212 27.6799L40.6617 27.408V26.4877L50.0212 26.7781V27.6799Z" fill="url(#paint25_linear_50_2467)"/>
<path opacity="0.6" d="M57.0385 53.7835L43.7244 54.1726V53.2584L57.0385 52.8959V53.7835Z" fill="white"/>
<path opacity="0.5" d="M59.2217 54.947L46.04 55.3688V54.4592L59.2217 54.0637V54.947Z" fill="url(#paint26_linear_50_2467)"/>
<path opacity="0.5" d="M59.2217 56.1743L46.04 56.6327V55.7231L59.2217 55.291V56.1743Z" fill="url(#paint27_linear_50_2467)"/>
<path opacity="0.5" d="M64.902 57.1884L52.0616 57.6705V56.7729L64.902 56.3164V57.1884Z" fill="url(#paint28_linear_50_2467)"/>
<path d="M64.902 58.3998L52.0616 58.9175V58.02L64.902 57.5278V58.3998Z" fill="url(#paint29_linear_50_2467)"/>
<path opacity="0.6" d="M64.902 59.6115L52.0616 60.1648V59.2672L64.902 58.7395V59.6115Z" fill="white"/>
<path opacity="0.5" d="M50.0212 52.7358L40.6617 52.9834V52.063L50.0212 51.8341V52.7358Z" fill="url(#paint30_linear_50_2467)"/>
<path opacity="0.5" d="M57.0385 40.2169L43.7244 40.1997V39.2854L57.0385 39.3292V40.2169Z" fill="url(#paint31_linear_50_2467)"/>
<path opacity="0.6" d="M59.2217 41.447L46.04 41.4665V40.5569L59.2217 40.5637V41.447Z" fill="white"/>
<path opacity="0.5" d="M59.2217 42.6743L46.04 42.7304V41.8207L59.2217 41.791V42.6743Z" fill="url(#paint32_linear_50_2467)"/>
<path opacity="0.5" d="M59.2217 43.9016L46.04 43.9943V43.0846L59.2217 43.0183V43.9016Z" fill="url(#paint33_linear_50_2467)"/>
<path opacity="0.5" d="M49.1323 45.2277L40.685 45.3105V44.3901L49.1323 44.3242V45.2277Z" fill="url(#paint34_linear_50_2467)"/>
<path opacity="0.6" d="M53.09 46.4333L43.7244 46.5511V45.6368L53.09 45.5377V46.4333Z" fill="white"/>
<path d="M57.9557 47.6029L46.04 47.7858V46.8762L57.9557 46.717V47.6029Z" fill="url(#paint35_linear_50_2467)"/>
<path opacity="0.5" d="M57.9557 48.8336L46.04 49.0496V48.14L57.9557 47.9478V48.8336Z" fill="url(#paint36_linear_50_2467)"/>
<path opacity="0.5" d="M60.5973 50.0093L48.825 50.2553V49.3512L60.5973 49.1287V50.0093Z" fill="url(#paint37_linear_50_2467)"/>
<path opacity="0.5" d="M60.5973 51.2327L48.825 51.5114V50.6074L60.5973 50.3522V51.2327Z" fill="url(#paint38_linear_50_2467)"/>
<path d="M50.0212 38.9551L40.6617 38.917V37.9966L50.0212 38.0534V38.9551Z" fill="url(#paint39_linear_50_2467)"/>
<path d="M32.9399 29.6242L24.4367 29.4215V28.0801L32.9399 28.3067V29.6242Z" fill="white"/>
<path opacity="0.6" d="M22.2374 29.3691L23.8389 29.4073V28.0642L22.2374 28.0215V29.3691Z" fill="white"/>
<path opacity="0.6" d="M32.9399 31.518L24.4367 31.3497V30.0083L32.9399 30.2005V31.518Z" fill="white"/>
<path opacity="0.6" d="M22.2374 31.3063L23.8389 31.3379V29.9948L22.2374 29.9586V31.3063Z" fill="white"/>
<path opacity="0.6" d="M32.9399 33.412L24.4367 33.2781V31.9366L32.9399 32.0945V33.412Z" fill="white"/>
<path opacity="0.6" d="M22.2374 33.2435L23.8389 33.2687V31.9256L22.2374 31.8959V33.2435Z" fill="white"/>
<path d="M32.9399 46.8557L18.084 47.0479V45.6886L32.9399 45.5382V46.8557Z" fill="white"/>
<path opacity="0.6" d="M32.9399 48.9143L24.4367 49.0617V47.7202L32.9399 47.5968V48.9143Z" fill="white"/>
<path opacity="0.6" d="M22.2374 49.0999L23.8389 49.0721V47.729L22.2374 47.7523V49.0999Z" fill="white"/>
<path opacity="0.6" d="M32.9399 50.8082L24.4367 50.99V49.6485L32.9399 49.4907V50.8082Z" fill="white"/>
<path opacity="0.6" d="M22.2374 51.0372L23.8389 51.0029V49.6598L22.2374 49.6895V51.0372Z" fill="white"/>
<path opacity="0.6" d="M32.9399 52.7023L24.4367 52.9184V51.577L32.9399 51.3848V52.7023Z" fill="white"/>
<path opacity="0.6" d="M22.2374 52.9743L23.8389 52.9336V51.5905L22.2374 51.6266V52.9743Z" fill="white"/>
<path d="M32.9399 35.3189L18.084 35.1453V33.786L32.9399 34.0013V35.3189Z" fill="white"/>
<path opacity="0.6" d="M32.9399 37.3775L24.4367 37.3155V35.9741L32.9399 36.06V37.3775Z" fill="white"/>
<path opacity="0.6" d="M22.2374 37.2994L23.8389 37.3111V35.968L22.2374 35.9518V37.2994Z" fill="white"/>
<path opacity="0.6" d="M32.9399 39.2713L24.4367 39.2437V37.9022L32.9399 37.9537V39.2713Z" fill="white"/>
<path opacity="0.6" d="M22.2374 39.2367L23.8389 39.2419V37.8987L22.2374 37.889V39.2367Z" fill="white"/>
<path opacity="0.6" d="M32.9399 43.0839L24.4367 43.1255V41.784L32.9399 41.7664V43.0839Z" fill="white"/>
<path opacity="0.6" d="M22.2374 43.1361L23.8389 43.1283V41.7852L22.2374 41.7885V43.1361Z" fill="white"/>
<path opacity="0.6" d="M32.9399 44.9779L24.4367 45.0539V43.7124L32.9399 43.6604V44.9779Z" fill="white"/>
<path opacity="0.6" d="M22.2374 45.0734L23.8389 45.0591V43.7159L22.2374 43.7258V45.0734Z" fill="white"/>
<path opacity="0.6" d="M32.9399 41.1654L24.4367 41.1721V39.8307L32.9399 39.8478V41.1654Z" fill="white"/>
<path opacity="0.6" d="M22.2374 41.1738L23.8389 41.1725V39.8294L22.2374 39.8262V41.1738Z" fill="white"/>
<path d="M32.9399 54.5956L18.084 55.0332V53.6739L32.9399 53.2781V54.5956Z" fill="white"/>
<path opacity="0.6" d="M32.9399 56.6543L24.4367 56.9422V55.6007L32.9399 55.3368V56.6543Z" fill="white"/>
<path opacity="0.6" d="M22.2374 57.0165L23.8389 56.9623V55.6191L22.2374 55.6688V57.0165Z" fill="white"/>
<path opacity="0.6" d="M32.9399 58.5482L24.4367 58.8704V57.529L32.9399 57.2307V58.5482Z" fill="white"/>
<path opacity="0.6" d="M22.2374 58.9537L23.8389 58.8931V57.5499L22.2374 57.6061V58.9537Z" fill="white"/>
<path opacity="0.6" d="M32.9399 60.4422L24.4367 60.7987V59.4573L32.9399 59.1246V60.4422Z" fill="white"/>
<path opacity="0.6" d="M22.2374 60.8909L23.8389 60.8237V59.4806L22.2374 59.5432V60.8909Z" fill="white"/>
<path opacity="0.6" d="M34.7452 60.373L34.418 60.3867V26.2938L34.7452 26.304V60.373Z" fill="white"/>
<path opacity="0.6" d="M75.3374 61.9579C60.9134 62.2473 57.6697 64.2238 53.5711 61.8555C47.9393 58.6014 50.5041 52.8128 45.017 49.7763C38.1185 45.9589 30.1648 52.9503 26.5644 49.5418C22.9789 46.1474 29.7521 38.1585 25.8312 29.2534C24.2577 25.6797 21.5785 23.3585 19.7276 22.0278L15.9941 21.8725C14.5613 21.8129 13.3892 22.7233 13.3892 23.9021V66.3897C13.3892 67.5686 14.5613 68.4606 15.9941 68.3786L82.2547 64.5878C83.3066 64.5276 84.1584 63.6632 84.1584 62.6606V62.0182C82.1725 61.9505 79.0963 61.8825 75.3374 61.9579Z" fill="white"/>
<path d="M56.3669 41.4406L55.4373 40.4671C55.265 40.2719 54.9958 40.0099 54.6104 39.7831C53.8625 39.3428 52.8332 39.127 52.6791 39.3783C52.5043 39.6634 53.482 40.5082 53.8148 40.7869C54.2745 41.1074 54.7341 41.4278 55.1939 41.7482L56.3669 41.4406Z" fill="url(#paint40_linear_50_2467)"/>
<path d="M76.2258 34.8242C76.4782 34.9158 80.3289 36.3854 81.1204 40.2423C81.1843 40.5539 81.803 43.8676 79.4613 46.2085C76.8355 48.8335 71.7794 48.7684 69.7724 46.574C69.3044 46.0622 69.0575 45.495 68.9192 45.0185L69.448 43.6702C70.0932 42.9227 70.9717 42.7456 71.4409 42.6346C72.5976 42.361 73.4709 42.8555 74.1333 42.3202C74.4999 42.0241 74.5726 41.5978 74.6377 41.217C74.8592 39.9201 74.0965 39.1218 74.041 38.3221C73.9995 37.7241 73.7814 36.4141 74.5945 35.5598C75.1095 35.0189 75.8227 34.8716 76.2258 34.8242Z" fill="url(#paint41_linear_50_2467)"/>
<path d="M77.7262 77.8081C77.7711 77.5706 78.5701 77.3557 78.9657 77.6738C79.1622 77.8316 79.2975 78.1518 79.1838 78.2963C79.1425 78.3489 79.3118 78.4414 79.1495 78.4432C78.6113 78.4492 77.6815 78.044 77.7262 77.8081Z" fill="url(#paint42_linear_50_2467)"/>
<path d="M78.5637 77.8945L79.3854 77.783C79.0047 77.3431 79.0752 75.9424 79.0752 75.9424L78.2013 76.1295C78.2013 76.1295 78.3008 76.514 78.4702 77.0812C78.5283 77.2753 78.5542 77.5792 78.5637 77.8945Z" fill="url(#paint43_linear_50_2467)"/>
<path d="M78.4908 77.7973C78.4908 77.7973 79.4801 77.5786 79.5871 77.7669C79.6942 77.9553 79.7772 78.4595 79.1495 78.4432C78.5219 78.427 78.435 77.957 78.4908 77.7973Z" fill="url(#paint44_linear_50_2467)"/>
<path d="M66.4511 78.6983C66.5302 78.4693 67.3527 78.3638 67.698 78.7318C67.8695 78.9145 67.9568 79.2497 67.8231 79.3775C67.7745 79.4241 67.9287 79.5384 67.7678 79.5184C67.234 79.4521 66.3724 78.9259 66.4511 78.6983Z" fill="url(#paint45_linear_50_2467)"/>
<path d="M67.2678 78.8963H68.0977C67.7848 78.4096 68.059 77.0321 68.059 77.0321L67.1664 77.1001C67.1664 77.1001 67.2089 77.4942 67.2939 78.0784C67.323 78.2785 67.3043 78.5829 67.2678 78.8963Z" fill="url(#paint46_linear_50_2467)"/>
<path d="M65.1169 48.7785C64.7325 49.9968 64.1835 51.9632 63.8301 54.4303C62.822 61.4673 64.9646 61.6918 64.5645 69.4896C64.4368 71.9787 66.8115 77.7183 67.0208 77.8451C67.1221 77.8545 67.232 77.8608 67.3492 77.8574C67.5558 77.8514 67.847 77.8211 68.1856 77.7236C68.5618 77.6614 69.9181 74.1361 69.6037 72.04C69.3812 70.5564 69.4457 68.9643 69.5747 65.7801C69.5956 65.2641 70.9711 55.742 70.9711 55.742C71.3896 59.2665 71.8708 62.2613 72.288 64.5832C73.6283 72.0431 77.9862 76.5582 78.2135 76.6306C78.2585 76.6479 78.6674 76.7905 79.0017 76.579C79.1505 76.4849 79.2011 76.3635 79.2011 76.3635C79.3177 76.2759 79.1668 68.9157 77.8375 63.3765C75.9082 55.3364 76.7483 53.4552 76.137 49.864C75.6082 46.7566 65.1169 48.7785 65.1169 48.7785Z" fill="url(#paint47_linear_50_2467)"/>
<path d="M72.9101 34.1966C71.6291 34.1604 68.6848 33.7265 67.0631 35.1268C67.0349 35.1511 67.3672 35.3215 67.2036 35.5054C67.0517 35.6762 66.5308 36.274 66.0586 37.0821C65.7165 37.6674 65.4078 38.3496 65.0963 39.3665C64.5469 41.1597 64.3893 42.6866 64.3366 43.3519C64.0402 47.0933 64.3341 48.8194 64.6008 49.9933C65.759 50.5641 68.7433 51.5857 72.2991 51.0781C73.923 50.8463 75.2226 50.3277 76.1371 49.8648C75.2144 47.1839 75.9382 45.7492 76.2798 44.4269C76.7668 42.5414 76.7746 42.684 77.1756 41.1862C77.8371 38.7148 77.9457 36.1895 77.4911 35.6727C76.2654 34.2794 74.0569 34.229 72.9101 34.1966Z" fill="url(#paint48_linear_50_2467)"/>
<path d="M67.2097 78.7904C67.2097 78.7904 68.2212 78.7067 68.2996 78.9075C68.3781 79.1084 68.3869 79.6188 67.7678 79.5184C67.1486 79.418 67.1312 78.941 67.2097 78.7904Z" fill="url(#paint49_linear_50_2467)"/>
<path d="M69.305 32.7871C68.9082 32.1434 69.085 31.4079 69.1248 31.249C69.2917 30.5836 69.3538 30.4827 69.4825 30.3419L69.6644 30.1573C69.6644 30.1573 69.6757 30.1492 69.6877 30.1413C69.8142 30.0578 70.2867 29.922 70.3886 29.9172C70.7144 29.9015 71.3775 31.0226 71.7571 32.7504C71.7879 32.8121 71.8184 32.8744 71.8487 32.9374C72.037 33.3294 72.1985 33.7149 72.3372 34.0908C74.539 34.2694 74.8446 34.5173 74.8544 34.6605C74.875 34.9619 73.6205 35.3101 72.677 35.4427C70.6194 35.7318 68.5043 35.211 68.514 34.8428C68.5182 34.6825 68.9272 34.4736 70.6714 34.2544C70.6306 33.9774 70.5899 33.7004 70.5491 33.4233C70.4073 33.3932 69.5972 33.2615 69.305 32.7871Z" fill="url(#paint50_linear_50_2467)"/>
<path d="M68.8911 29.8368C69.0395 30.3642 69.4553 30.8616 69.6125 30.9184C69.6328 30.9258 69.749 30.974 69.8698 31.0763C69.8862 31.0902 69.902 31.1074 69.9184 31.1307C70.1313 31.4325 69.6889 31.965 69.8367 32.0867C69.9439 32.175 70.2783 31.9347 70.3488 32.0166C70.4151 32.0936 70.1544 32.3551 70.2312 32.4481C70.2892 32.5182 70.4606 32.3966 70.6152 32.4873C70.6923 32.5325 70.6879 32.5851 70.8032 32.7539C70.8684 32.8494 70.9507 32.9511 71.0075 33.0048C71.2837 33.2661 71.8535 33.2416 71.9227 33.0911C71.9419 33.0492 71.9091 33.0265 71.9063 32.9029C71.9063 32.9029 71.9038 32.7884 71.9472 32.6442C72.0092 32.4381 72.2428 32.2423 72.462 31.9855C72.8679 31.5098 72.9223 31.1789 72.9355 31.0685C72.9401 31.0291 72.9418 31 72.9429 30.9789C72.9654 30.5564 72.8072 29.9848 72.5274 29.6799C72.0585 29.1693 71.4473 29.625 70.7214 29.1859C69.884 28.6793 70.0159 27.6602 69.6347 27.6489C69.2144 27.6364 68.6166 28.8616 68.8911 29.8368Z" fill="url(#paint51_linear_50_2467)"/>
<path d="M69.9999 31.912C70.0854 31.6998 70.3687 31.8062 70.4339 32.0358C70.4992 32.2655 70.3334 32.564 70.0955 32.5762C69.8576 32.5885 69.885 32.1977 69.9999 31.912Z" fill="url(#paint52_linear_50_2467)"/>
<path d="M75.729 48.1614C75.714 48.1614 75.7011 48.1506 75.6994 48.1359C75.5465 46.8153 75.8307 45.8589 76.0815 45.0151C76.1427 44.8091 76.2006 44.6145 76.2508 44.42C76.5276 43.3484 76.6487 42.9347 76.777 42.4966C76.8603 42.2122 76.9464 41.9181 77.0798 41.4268C77.084 41.4115 77.1005 41.4023 77.1162 41.4064C77.1322 41.4103 77.1417 41.4259 77.1376 41.4413C77.004 41.9331 76.9178 42.2274 76.8345 42.5121C76.7063 42.9496 76.5853 43.3629 76.3087 44.4337C76.2582 44.6292 76.2003 44.8243 76.1389 45.0308C75.8897 45.8695 75.6071 46.8201 75.7587 48.1296C75.7605 48.1453 75.7488 48.1594 75.7323 48.1611C75.7312 48.1614 75.7301 48.1614 75.729 48.1614Z" fill="#9B305E"/>
<path d="M70.0024 31.4994L69.7981 31.9698C69.7981 31.9698 69.5938 32.5344 69.3242 32.3228C69.1039 32.1498 69.0635 32.1652 69.0562 32.1767C69.0548 32.1789 69.055 32.1816 69.0545 32.1816C69.0515 32.1816 69.0485 32.069 69.0463 31.9698C68.995 32.1058 68.9319 32.3212 68.9319 32.5894C68.932 32.8498 68.932 33.1287 69.1444 33.3422C69.1567 33.3545 69.3881 33.5804 69.7 33.5696C69.7 33.5696 69.8227 33.5654 70.2884 33.3579C70.2884 33.3579 69.651 33.1227 69.6183 33.0364C69.5294 32.8019 69.8405 32.5832 69.9615 32.0248C70.0082 31.8094 70.0093 31.6246 70.0024 31.4994Z" fill="url(#paint53_linear_50_2467)"/>
<path d="M55.8524 40.745C55.3892 41.056 55.1407 41.4785 55.012 41.7482C55.3525 42.5153 56.125 43.9398 57.7237 44.9895C60.3451 46.7108 64.1888 46.7687 66.866 44.8058C70.0646 42.4606 70.599 37.9636 69.2555 36.0377C69.1009 35.816 68.5924 35.0871 67.8031 35.0035C67.3046 34.9507 66.6261 35.1479 65.5541 36.3524C63.3204 38.8623 64.1094 40.4294 62.7897 41.1637C60.8108 42.2647 57.8702 39.3899 55.8524 40.745Z" fill="url(#paint54_linear_50_2467)"/>
<path d="M64.8567 45.8612C64.8429 45.8612 64.8306 45.8521 64.8275 45.8387C64.824 45.8233 64.8343 45.808 64.8504 45.8047C64.8816 45.7982 67.9848 45.1123 69.3823 41.4123C69.3879 41.3975 69.405 41.3898 69.4205 41.3951C69.436 41.4005 69.444 41.4169 69.4384 41.4318C68.7023 43.3808 67.4983 44.481 66.618 45.0606C65.6633 45.6893 64.8709 45.859 64.863 45.8606C64.8609 45.861 64.8588 45.8612 64.8567 45.8612Z" fill="#9B305E"/>
<path d="M81.3426 9.47271L44.2152 7.60845C42.5045 7.52255 41.1125 8.76306 41.1125 10.3796V18.8259C41.1125 20.4424 42.5045 21.7992 44.2152 21.8563L81.3426 23.0945C82.9002 23.1465 84.1584 21.9445 84.1584 20.4101V12.3924C84.1584 10.858 82.9002 9.55091 81.3426 9.47271Z" fill="url(#paint55_linear_50_2467)"/>
<path opacity="0.6" d="M44.2152 21.0473C42.9816 21.005 41.9755 20.0227 41.9755 18.8576V10.4199C41.9755 9.25488 42.9816 8.35657 44.2152 8.41734L81.3426 10.2461C82.4669 10.3014 83.3792 11.2479 83.3792 12.356V20.3814C83.3792 21.4895 82.4669 22.3597 81.3426 22.3211L44.2152 21.0473Z" fill="white"/>
<path d="M52.7214 18.4433L51.1787 18.385V15.3271L48.1539 15.2018V18.2707L46.5942 18.2118V11.0377L48.1539 11.1099V14.0117L51.1787 14.1412V11.2499L52.7214 11.3213V18.4433Z" fill="white"/>
<path d="M59.4879 12.8136L57.2293 12.7123V18.6136L55.7032 18.556V12.6438L53.4547 12.5429V11.3553L59.4879 11.6346V12.8136Z" fill="white"/>
<path d="M62.3215 11.7656L64.1932 16.9468L66.0465 11.938L68.0003 12.0285V19.0204L66.5085 18.964V17.0493L66.6575 13.7508L64.7022 18.8958L63.6736 18.8569L61.7092 13.5374L61.8598 16.8629V18.7884L60.3506 18.7314V11.6744L62.3215 11.7656Z" fill="white"/>
<path d="M70.7713 17.9717L73.8895 18.0939V19.2429L69.2944 19.0693V12.0885L70.7712 12.1569L70.7713 17.9717Z" fill="white"/>
<path d="M74.7857 15.8669L75.1943 12.3616L79.1415 12.5443V13.6859L76.3446 13.5604L76.1701 15.0407C76.5029 14.8808 76.8565 14.8089 77.2307 14.8251C77.9008 14.8542 78.4252 15.0808 78.8044 15.5047C79.1832 15.9282 79.3725 16.5061 79.3725 17.2385C79.3725 17.6836 79.277 18.0785 79.0862 18.423C78.8951 18.7678 78.6213 19.0306 78.2644 19.2113C77.9073 19.3923 77.4853 19.4737 76.9985 19.4553C76.5724 19.4393 76.1766 19.3396 75.8111 19.1562C75.4453 18.9726 75.1561 18.7227 74.9439 18.4066C74.7314 18.0904 74.6186 17.735 74.6057 17.3407L75.9955 17.3965C76.0247 17.6862 76.1273 17.9145 76.3035 18.0815C76.4795 18.2484 76.7096 18.3374 76.9937 18.3485C77.3097 18.3608 77.553 18.2587 77.7238 18.0424C77.8944 17.8261 77.9797 17.5141 77.9797 17.1061C77.9797 16.714 77.8815 16.4094 77.6851 16.1925C77.4886 15.9755 77.2097 15.8592 76.8484 15.844C76.5158 15.83 76.246 15.9043 76.0391 16.0668L75.9033 16.1847L74.7857 15.8669Z" fill="white"/>
<g opacity="0.3">
<path d="M64.3748 20.1111C58.7416 18.5475 58.4669 13.4359 52.1118 10.1553C48.9038 8.49918 45.5141 8.00732 42.4341 8.05097C41.6356 8.54072 41.1125 9.38959 41.1125 10.3795V18.8258C41.1125 20.4423 42.5045 21.7992 44.2152 21.8562L81.3426 23.0945C82.525 23.1339 83.5341 22.4506 83.9519 21.4488C82.1307 19.7111 80.3321 18.8234 78.6555 18.4323C73.0228 17.1184 70.1754 21.7211 64.3748 20.1111Z" fill="url(#paint56_linear_50_2467)"/>
</g>
<defs>
<linearGradient id="paint0_linear_50_2467" x1="28.6011" y1="54.6501" x2="-15.1648" y2="27.0208" gradientUnits="userSpaceOnUse">
<stop stop-color="#FF9085"/>
<stop offset="1" stop-color="#FB6FBB"/>
</linearGradient>
<linearGradient id="paint1_linear_50_2467" x1="32.5303" y1="9.58312" x2="26.3967" y2="46.7325" gradientUnits="userSpaceOnUse">
<stop stop-color="#FF9085"/>
<stop offset="1" stop-color="#FB6FBB"/>
</linearGradient>
<linearGradient id="paint2_linear_50_2467" x1="12.2547" y1="1.51248" x2="20.208" y2="43.6295" gradientUnits="userSpaceOnUse">
<stop stop-color="#FFC444"/>
<stop offset="0.9964" stop-color="#F36F56"/>
</linearGradient>
<linearGradient id="paint3_linear_50_2467" x1="39.4873" y1="-2.2563" x2="47.2637" y2="38.9235" gradientUnits="userSpaceOnUse">
<stop stop-color="#FFC444"/>
<stop offset="0.9964" stop-color="#F36F56"/>
</linearGradient>
<linearGradient id="paint4_linear_50_2467" x1="17.252" y1="0.952532" x2="25.0176" y2="42.0756" gradientUnits="userSpaceOnUse">
<stop stop-color="#FFC444"/>
<stop offset="0.9964" stop-color="#F36F56"/>
</linearGradient>
<linearGradient id="paint5_linear_50_2467" x1="9.69711" y1="1.59319" x2="17.7344" y2="44.1549" gradientUnits="userSpaceOnUse">
<stop stop-color="#FFC444"/>
<stop offset="0.9964" stop-color="#F36F56"/>
</linearGradient>
<linearGradient id="paint6_linear_50_2467" x1="41.1883" y1="-2.30873" x2="48.8643" y2="38.34" gradientUnits="userSpaceOnUse">
<stop stop-color="#FFC444"/>
<stop offset="0.9964" stop-color="#F36F56"/>
</linearGradient>
<linearGradient id="paint7_linear_50_2467" x1="36.3477" y1="-1.29262" x2="43.9806" y2="39.1275" gradientUnits="userSpaceOnUse">
<stop stop-color="#FFC444"/>
<stop offset="0.9964" stop-color="#F36F56"/>
</linearGradient>
<linearGradient id="paint8_linear_50_2467" x1="42.1954" y1="-2.4135" x2="49.8844" y2="38.3033" gradientUnits="userSpaceOnUse">
<stop stop-color="#FFC444"/>
<stop offset="0.9964" stop-color="#F36F56"/>
</linearGradient>
<linearGradient id="paint9_linear_50_2467" x1="18.6374" y1="0.499515" x2="26.5624" y2="42.4664" gradientUnits="userSpaceOnUse">
<stop stop-color="#FFC444"/>
<stop offset="0.9964" stop-color="#F36F56"/>
</linearGradient>
<linearGradient id="paint10_linear_50_2467" x1="28.1041" y1="0.0406172" x2="35.7726" y2="40.6493" gradientUnits="userSpaceOnUse">
<stop stop-color="#FFC444"/>
<stop offset="0.9964" stop-color="#F36F56"/>
</linearGradient>
<linearGradient id="paint11_linear_50_2467" x1="25.2754" y1="-0.226466" x2="32.9334" y2="40.3267" gradientUnits="userSpaceOnUse">
<stop stop-color="#FFC444"/>
<stop offset="0.9964" stop-color="#F36F56"/>
</linearGradient>
<linearGradient id="paint12_linear_50_2467" x1="11.7072" y1="1.41151" x2="19.7361" y2="43.9285" gradientUnits="userSpaceOnUse">
<stop stop-color="#FFC444"/>
<stop offset="0.9964" stop-color="#F36F56"/>
</linearGradient>
<linearGradient id="paint13_linear_50_2467" x1="33.615" y1="-1.77264" x2="41.718" y2="41.137" gradientUnits="userSpaceOnUse">
<stop stop-color="#FFC444"/>
<stop offset="0.9964" stop-color="#F36F56"/>
</linearGradient>
<linearGradient id="paint14_linear_50_2467" x1="6.5833" y1="22.8599" x2="3.63062" y2="40.7435" gradientUnits="userSpaceOnUse">
<stop stop-color="#FFC444"/>
<stop offset="0.9964" stop-color="#F36F56"/>
</linearGradient>
<linearGradient id="paint15_linear_50_2467" x1="40.7349" y1="70.0935" x2="63.7226" y2="70.0935" gradientUnits="userSpaceOnUse">
<stop stop-color="#444B8C"/>
<stop offset="0.9964" stop-color="#26264F"/>
</linearGradient>
<linearGradient id="paint16_linear_50_2467" x1="52.2252" y1="91.9145" x2="52.4003" y2="76.397" gradientUnits="userSpaceOnUse">
<stop offset="0.0036" stop-color="#E38DDD"/>
<stop offset="1" stop-color="#9571F6"/>
</linearGradient>
<linearGradient id="paint17_linear_50_2467" x1="12.7937" y1="45.1268" x2="83.5629" y2="45.1268" gradientUnits="userSpaceOnUse">
<stop stop-color="#444B8C"/>
<stop offset="0.9964" stop-color="#26264F"/>
</linearGradient>
<linearGradient id="paint18_linear_50_2467" x1="13.3892" y1="45.1268" x2="84.1584" y2="45.1268" gradientUnits="userSpaceOnUse">
<stop offset="0.0036" stop-color="#E38DDD"/>
<stop offset="1" stop-color="#9571F6"/>
</linearGradient>
<linearGradient id="paint19_linear_50_2467" x1="32.264" y1="15.1732" x2="61.6381" y2="71.3129" gradientUnits="userSpaceOnUse">
<stop stop-color="#444B8C"/>
<stop offset="0.9964" stop-color="#26264F"/>
</linearGradient>
<linearGradient id="paint20_linear_50_2467" x1="48.9645" y1="20.2097" x2="54.1526" y2="53.1612" gradientUnits="userSpaceOnUse">
<stop offset="0.0036" stop-color="#E38DDD"/>
<stop offset="1" stop-color="#9571F6"/>
</linearGradient>
<linearGradient id="paint21_linear_50_2467" x1="46.04" y1="29.7918" x2="59.2217" y2="29.7918" gradientUnits="userSpaceOnUse">
<stop stop-color="#FF9085"/>
<stop offset="1" stop-color="#FB6FBB"/>
</linearGradient>
<linearGradient id="paint22_linear_50_2467" x1="46.04" y1="31.0374" x2="59.2217" y2="31.0374" gradientUnits="userSpaceOnUse">
<stop stop-color="#FF9085"/>
<stop offset="1" stop-color="#FB6FBB"/>
</linearGradient>
<linearGradient id="paint23_linear_50_2467" x1="43.7244" y1="34.7194" x2="53.09" y2="34.7194" gradientUnits="userSpaceOnUse">
<stop stop-color="#FF9085"/>
<stop offset="1" stop-color="#FB6FBB"/>
</linearGradient>
<linearGradient id="paint24_linear_50_2467" x1="49.0842" y1="20.2295" x2="53.8313" y2="50.3797" gradientUnits="userSpaceOnUse">
<stop offset="0.0036" stop-color="#E38DDD"/>
<stop offset="1" stop-color="#9571F6"/>
</linearGradient>
<linearGradient id="paint25_linear_50_2467" x1="40.6617" y1="27.0838" x2="50.0212" y2="27.0838" gradientUnits="userSpaceOnUse">
<stop stop-color="#FF9085"/>
<stop offset="1" stop-color="#FB6FBB"/>
</linearGradient>
<linearGradient id="paint26_linear_50_2467" x1="46.04" y1="54.7163" x2="59.2217" y2="54.7163" gradientUnits="userSpaceOnUse">
<stop stop-color="#FF9085"/>
<stop offset="1" stop-color="#FB6FBB"/>
</linearGradient>
<linearGradient id="paint27_linear_50_2467" x1="46.04" y1="55.9619" x2="59.2217" y2="55.9619" gradientUnits="userSpaceOnUse">
<stop stop-color="#FF9085"/>
<stop offset="1" stop-color="#FB6FBB"/>
</linearGradient>
<linearGradient id="paint28_linear_50_2467" x1="52.0616" y1="56.9935" x2="64.902" y2="56.9935" gradientUnits="userSpaceOnUse">
<stop stop-color="#FF9085"/>
<stop offset="1" stop-color="#FB6FBB"/>
</linearGradient>
<linearGradient id="paint29_linear_50_2467" x1="53.0812" y1="26.6321" x2="56.7891" y2="50.1824" gradientUnits="userSpaceOnUse">
<stop offset="0.0036" stop-color="#E38DDD"/>
<stop offset="1" stop-color="#9571F6"/>
</linearGradient>
<linearGradient id="paint30_linear_50_2467" x1="40.6617" y1="52.4087" x2="50.0212" y2="52.4087" gradientUnits="userSpaceOnUse">
<stop stop-color="#FF9085"/>
<stop offset="1" stop-color="#FB6FBB"/>
</linearGradient>
<linearGradient id="paint31_linear_50_2467" x1="43.7244" y1="39.7512" x2="57.0385" y2="39.7512" gradientUnits="userSpaceOnUse">
<stop stop-color="#FF9085"/>
<stop offset="1" stop-color="#FB6FBB"/>
</linearGradient>
<linearGradient id="paint32_linear_50_2467" x1="46.04" y1="42.2607" x2="59.2217" y2="42.2607" gradientUnits="userSpaceOnUse">
<stop stop-color="#FF9085"/>
<stop offset="1" stop-color="#FB6FBB"/>
</linearGradient>
<linearGradient id="paint33_linear_50_2467" x1="46.04" y1="43.5063" x2="59.2217" y2="43.5063" gradientUnits="userSpaceOnUse">
<stop stop-color="#FF9085"/>
<stop offset="1" stop-color="#FB6FBB"/>
</linearGradient>
<linearGradient id="paint34_linear_50_2467" x1="40.685" y1="44.8173" x2="49.1323" y2="44.8173" gradientUnits="userSpaceOnUse">
<stop stop-color="#FF9085"/>
<stop offset="1" stop-color="#FB6FBB"/>
</linearGradient>
<linearGradient id="paint35_linear_50_2467" x1="47.7188" y1="22.2211" x2="52.0279" y2="49.5901" gradientUnits="userSpaceOnUse">
<stop offset="0.0036" stop-color="#E38DDD"/>
<stop offset="1" stop-color="#9571F6"/>
</linearGradient>
<linearGradient id="paint36_linear_50_2467" x1="46.04" y1="48.4987" x2="57.9557" y2="48.4987" gradientUnits="userSpaceOnUse">
<stop stop-color="#FF9085"/>
<stop offset="1" stop-color="#FB6FBB"/>
</linearGradient>
<linearGradient id="paint37_linear_50_2467" x1="48.825" y1="49.692" x2="60.5973" y2="49.692" gradientUnits="userSpaceOnUse">
<stop stop-color="#FF9085"/>
<stop offset="1" stop-color="#FB6FBB"/>
</linearGradient>
<linearGradient id="paint38_linear_50_2467" x1="48.825" y1="50.9318" x2="60.5973" y2="50.9318" gradientUnits="userSpaceOnUse">
<stop stop-color="#FF9085"/>
<stop offset="1" stop-color="#FB6FBB"/>
</linearGradient>
<linearGradient id="paint39_linear_50_2467" x1="42.36" y1="21.0452" x2="47.1354" y2="51.3754" gradientUnits="userSpaceOnUse">
<stop offset="0.0036" stop-color="#E38DDD"/>
<stop offset="1" stop-color="#9571F6"/>
</linearGradient>
<linearGradient id="paint40_linear_50_2467" x1="52.6963" y1="38.3354" x2="57.3385" y2="44.4213" gradientUnits="userSpaceOnUse">
<stop stop-color="#FFC444"/>
<stop offset="0.9964" stop-color="#F36F56"/>
</linearGradient>
<linearGradient id="paint41_linear_50_2467" x1="74.1058" y1="47.5372" x2="77.1842" y2="34.7061" gradientUnits="userSpaceOnUse">
<stop stop-color="#FFC444"/>
<stop offset="0.9964" stop-color="#F36F56"/>
</linearGradient>
<linearGradient id="paint42_linear_50_2467" x1="77.2824" y1="77.1228" x2="78.9966" y2="78.3099" gradientUnits="userSpaceOnUse">
<stop stop-color="#444B8C"/>
<stop offset="0.9964" stop-color="#26264F"/>
</linearGradient>
<linearGradient id="paint43_linear_50_2467" x1="78.9847" y1="78.2553" x2="78.6297" y2="75.6386" gradientUnits="userSpaceOnUse">
<stop stop-color="#FFC444"/>
<stop offset="0.9964" stop-color="#F36F56"/>
</linearGradient>
<linearGradient id="paint44_linear_50_2467" x1="77.4146" y1="76.932" x2="79.1288" y2="78.119" gradientUnits="userSpaceOnUse">
<stop stop-color="#444B8C"/>
<stop offset="0.9964" stop-color="#26264F"/>
</linearGradient>
<linearGradient id="paint45_linear_50_2467" x1="66.1117" y1="77.9602" x2="67.6323" y2="79.3696" gradientUnits="userSpaceOnUse">
<stop stop-color="#444B8C"/>
<stop offset="0.9964" stop-color="#26264F"/>
</linearGradient>
<linearGradient id="paint46_linear_50_2467" x1="67.632" y1="79.3101" x2="67.632" y2="76.6714" gradientUnits="userSpaceOnUse">
<stop stop-color="#FFC444"/>
<stop offset="0.9964" stop-color="#F36F56"/>
</linearGradient>
<linearGradient id="paint47_linear_50_2467" x1="60.8496" y1="65.353" x2="81.3039" y2="60.0938" gradientUnits="userSpaceOnUse">
<stop stop-color="#FF9085"/>
<stop offset="1" stop-color="#FB6FBB"/>
</linearGradient>
<linearGradient id="paint48_linear_50_2467" x1="81.3949" y1="49.6732" x2="59.9045" y2="34.0994" gradientUnits="userSpaceOnUse">
<stop stop-color="#FFC444"/>
<stop offset="0.9964" stop-color="#F36F56"/>
</linearGradient>
<linearGradient id="paint49_linear_50_2467" x1="66.2703" y1="77.789" x2="67.791" y2="79.1985" gradientUnits="userSpaceOnUse">
<stop stop-color="#444B8C"/>
<stop offset="0.9964" stop-color="#26264F"/>
</linearGradient>
<linearGradient id="paint50_linear_50_2467" x1="71.748" y1="34.8757" x2="68.6747" y2="28.6209" gradientUnits="userSpaceOnUse">
<stop stop-color="#FFC444"/>
<stop offset="0.9964" stop-color="#F36F56"/>
</linearGradient>
<linearGradient id="paint51_linear_50_2467" x1="70.8402" y1="28.6736" x2="71.1958" y2="41.5348" gradientUnits="userSpaceOnUse">
<stop stop-color="#AB316D"/>
<stop offset="1" stop-color="#792D3D"/>
</linearGradient>
<linearGradient id="paint52_linear_50_2467" x1="68.0244" y1="29.6281" x2="76.1444" y2="40.2735" gradientUnits="userSpaceOnUse">
<stop stop-color="#FFC444"/>
<stop offset="0.9964" stop-color="#F36F56"/>
</linearGradient>
<linearGradient id="paint53_linear_50_2467" x1="69.4807" y1="28.7113" x2="69.8362" y2="41.5725" gradientUnits="userSpaceOnUse">
<stop stop-color="#AB316D"/>
<stop offset="1" stop-color="#792D3D"/>
</linearGradient>
<linearGradient id="paint54_linear_50_2467" x1="81.1638" y1="52.174" x2="56.9701" y2="34.6412" gradientUnits="userSpaceOnUse">
<stop stop-color="#FFC444"/>
<stop offset="0.9964" stop-color="#F36F56"/>
</linearGradient>
<linearGradient id="paint55_linear_50_2467" x1="41.1125" y1="15.3502" x2="84.1584" y2="15.3502" gradientUnits="userSpaceOnUse">
<stop stop-color="#AA80F9"/>
<stop offset="0.9964" stop-color="#6165D7"/>
</linearGradient>
<linearGradient id="paint56_linear_50_2467" x1="64.5902" y1="4.31186" x2="58.7772" y2="39.5194" gradientUnits="userSpaceOnUse">
<stop stop-color="#AA80F9"/>
<stop offset="0.9964" stop-color="#6165D7"/>
</linearGradient>
</defs>
</svg>
