<svg width="120" height="120" viewBox="0 0 73 72" fill="none" xmlns="http://www.w3.org/2000/svg">
<path fill-rule="evenodd" clip-rule="evenodd" d="M36.2506 72.0084C16.3684 72.0084 0.25061 55.8907 0.25061 36.0084C0.25061 16.1262 16.3684 0.00842285 36.2506 0.00842285C29.7506 31.0084 36.2506 45.0084 72.2506 36.0084C72.2506 47.8312 66.5515 58.3228 57.7506 64.8859C51.7511 69.36 44.3101 72.0084 36.2506 72.0084Z" fill="white"/>
<g clip-path="url(#paint0_diamond_60_29_clip_path)" data-figma-skip-parse="true"><g transform="matrix(3.57628e-10 0.006 -0.006 3.57628e-10 21.2506 37.0084)"><rect x="0" y="0" width="833.333" height="833.333" fill="url(#paint0_diamond_60_29)" opacity="1" shape-rendering="crispEdges"/><rect x="0" y="0" width="833.333" height="833.333" transform="scale(1 -1)" fill="url(#paint0_diamond_60_29)" opacity="1" shape-rendering="crispEdges"/><rect x="0" y="0" width="833.333" height="833.333" transform="scale(-1 1)" fill="url(#paint0_diamond_60_29)" opacity="1" shape-rendering="crispEdges"/><rect x="0" y="0" width="833.333" height="833.333" transform="scale(-1)" fill="url(#paint0_diamond_60_29)" opacity="1" shape-rendering="crispEdges"/></g></g><circle cx="21.2506" cy="37.0084" r="4" data-figma-gradient-fill="{&#34;type&#34;:&#34;GRADIENT_DIAMOND&#34;,&#34;stops&#34;:[{&#34;color&#34;:{&#34;r&#34;:1.0,&#34;g&#34;:1.0,&#34;b&#34;:1.0,&#34;a&#34;:1.0},&#34;position&#34;:0.0},{&#34;color&#34;:{&#34;r&#34;:0.11666666716337204,&#34;g&#34;:1.0,&#34;b&#34;:0.0,&#34;a&#34;:1.0},&#34;position&#34;:1.0}],&#34;stopsVar&#34;:[{&#34;color&#34;:{&#34;r&#34;:1.0,&#34;g&#34;:1.0,&#34;b&#34;:1.0,&#34;a&#34;:1.0},&#34;position&#34;:0.0},{&#34;color&#34;:{&#34;r&#34;:0.11666666716337204,&#34;g&#34;:1.0,&#34;b&#34;:0.0,&#34;a&#34;:1.0},&#34;position&#34;:1.0}],&#34;transform&#34;:{&#34;m00&#34;:7.1525579414810636e-07,&#34;m01&#34;:-12.000000953674316,&#34;m02&#34;:27.25061035156250,&#34;m10&#34;:12.000000953674316,&#34;m11&#34;:7.1525579414810636e-07,&#34;m12&#34;:31.00842285156250},&#34;opacity&#34;:1.0,&#34;blendMode&#34;:&#34;NORMAL&#34;,&#34;visible&#34;:true}"/>
<path d="M21.6997 36.3904L21.2506 35.0084L20.8016 36.3904H19.3485L20.5241 37.2445L20.0751 38.6265L21.2506 37.7724L22.4262 38.6265L21.9772 37.2445L23.1527 36.3904H21.6997Z" fill="black"/>
<path d="M36.7885 57.3726C36.9359 57.2825 37.2305 57.0422 37.7187 56.755C38.0585 56.555 38.3257 56.3324 38.651 56.1362C39.072 55.8823 39.421 55.6988 40.0107 55.3747C40.4525 55.1319 41.1943 54.9746 41.6536 54.8383C42.0207 54.7294 42.3782 54.6423 42.8073 54.5966C43.2885 54.5454 43.7983 54.416 44.6104 54.3703C45.1842 54.338 45.6319 54.1897 46.3122 54.1365C47.1018 54.0748 48.1472 54.0829 48.7383 54.1662C49.2435 54.2373 49.5672 54.4296 49.849 54.6109C50.1819 54.825 50.2187 55.1837 50.2498 55.553C50.2766 55.8719 49.6596 55.9984 49.3778 56.1801C49.1149 56.3497 48.5945 56.4067 48.0917 56.5121C47.6583 56.603 47.352 56.7986 46.9082 56.8894C46.3896 56.9955 45.8449 57.1906 45.3843 57.3644C44.9839 57.5155 44.6592 57.6432 44.2456 57.8395C43.7695 58.0653 43.4468 58.2317 43.0914 58.4055C42.7961 58.5498 42.5007 58.6997 41.9535 58.9029C40.8135 59.3263 39.7795 59.6502 39.4227 59.8235C38.9741 60.0415 38.418 60.2377 37.7675 60.4423C37.1489 60.6368 36.5542 60.6613 36.0221 60.7519C34.9816 60.9289 34.5715 60.617 34.2307 60.5262C33.845 60.4236 33.6254 60.1942 33.3871 60.0363C33.0862 59.8368 32.7077 59.6973 32.3668 59.5757C31.9959 59.4434 31.7314 59.2437 31.5086 59.1007C31.2194 58.915 30.9024 58.7766 30.5771 58.5727C30.5036 58.5266 30.4001 58.5195 30.3548 58.482C30.3095 58.4444 30.3095 58.3846 30.2656 58.3464C30.0809 58.1856 29.5427 58.0977 29.1717 57.954C28.8377 57.8246 28.5362 57.6451 28.1222 57.509C27.3817 57.2658 27.1748 57.0566 26.8495 56.9505C26.4437 56.8181 26.2287 56.6185 25.8732 56.4454C25.5807 56.3029 25.2222 56.1966 24.7642 56.0154C24.3916 55.8679 24.0684 55.6988 23.7431 55.5551C23.5617 55.4749 23.4169 55.3815 23.3282 55.1791C23.1455 54.7628 23.3273 54.431 23.4449 54.3257C24.1039 53.736 26.6689 54.1435 27.1126 54.1739C27.6605 54.2113 28.1777 54.3092 28.6361 54.3925C29.204 54.4957 29.7149 54.7012 30.16 54.875C30.6816 55.0787 31.1953 55.2298 31.6244 55.448C31.9673 55.6223 32.3491 55.7576 32.9992 55.9986C33.4791 56.1765 33.9467 56.3605 34.3168 56.5196C34.7017 56.6851 35.0401 56.8439 35.3822 57.0098C35.7408 57.1836 36.0466 57.3572 36.5059 57.4626C36.6153 57.4878 36.698 57.5228 36.7872 57.5233C37.1841 57.5253 37.4382 57.2829 38.2791 56.8536C38.6617 56.6583 39.0358 56.5587 39.4201 56.4902C39.8251 56.4179 40.0706 56.2111 40.4998 56.1432C40.9045 56.0792 41.1943 55.9242 41.6536 55.8416C42.1223 55.7573 42.5557 55.5023 42.9405 55.3514C43.3567 55.1881 43.7983 55.2154 44.3157 55.1174C44.5612 55.0709 44.7755 55.0343 44.9525 54.9816C45.4132 54.8444 42.5309 55.018 42.1594 55.2142C41.7004 55.4567 41.3753 55.591 41.0647 55.7126C40.7571 55.8329 40.4878 55.8938 40.281 55.9389C40.0891 55.9807 40.0724 56.1197 40.0431 56.1729C40.0345 56.1886 39.9553 56.0916 39.9544 56.0233C39.9511 55.7721 40.4256 55.6082 40.9284 55.4645C41.3873 55.3334 41.8457 55.2606 42.7168 55.2378C43.3447 55.2213 44.0929 55.0642 44.538 54.989C45.0748 54.8984 45.5733 54.8985 46.1352 54.8607C46.2617 54.8522 46.3135 54.7935 46.2705 54.7331C46.0223 54.3847 45.0151 54.4758 44.6898 54.4982C44.5629 54.5069 44.5403 54.5654 44.5252 54.6258C44.5101 54.6862 44.5101 54.7609 44.5833 54.7994C44.6565 54.8379 44.803 54.8379 44.9223 54.8229C45.4362 54.7586 45.9869 54.5518 46.4751 54.4835C47.3182 54.3654 47.7034 54.5808 48.0735 54.7091C48.4984 54.8564 48.8572 54.913 49.1097 55.0635C49.1746 55.1022 49.1838 55.1538 49.1989 55.1395C49.3953 54.954 49.0081 54.7482 48.9038 54.4993C48.8801 54.4427 48.772 54.416 48.6242 54.4006C48.4765 54.3852 48.2714 54.3852 48.1658 54.4226C48.0602 54.4599 48.0602 54.5346 48.1334 54.5955C48.4351 54.8463 48.8572 54.9429 49.1097 55.1088C49.2274 55.1861 49.214 55.3199 49.1701 55.4629C49.0828 55.7471 48.5359 55.8934 48.0327 56.0593C47.4759 56.2428 47.0271 56.3306 46.7294 56.4522C46.0268 56.7389 48.2945 55.5186 48.4006 55.2536C48.4216 55.201 48.3567 55.1556 48.283 55.1101C47.9452 54.9016 47.2348 54.9438 46.8044 54.8908C46.589 54.8643 46.3455 54.8682 46.1387 54.868C46.0445 54.8679 45.9905 54.9275 46.1068 54.9954C46.444 55.1923 46.9055 55.2602 47.068 55.3052C47.1515 55.3284 47.2011 55.3801 47.158 55.4256C47.0453 55.5447 46.349 55.5621 45.8294 55.5621C45.4997 55.5621 46.6393 55.5919 46.8017 55.6596C46.8831 55.6935 46.9348 55.7422 46.8625 55.7653C46.6243 55.8413 46.1982 55.7585 45.8294 55.6759C45.0343 55.4978 44.866 55.1859 44.8207 55.0275C44.7857 54.9051 45.6301 55.123 46.8137 55.3955C47.008 55.4402 47.0538 55.352 47.0688 55.2615C47.0839 55.171 47.0839 55.0515 47.1572 54.9825C47.2304 54.9135 47.3768 54.8985 47.5255 54.9282C47.6741 54.9578 47.8206 55.0325 47.896 55.1457C47.9715 55.2588 47.9715 55.4082 47.869 55.5075C47.4776 55.8868 46.3473 55.7576 45.8432 55.8409C45.3704 55.919 45.0444 56.1342 44.6596 56.4209C44.1612 56.7924 43.6243 57.1001 43.1073 57.4013C42.9212 57.5098 42.6516 57.6414 42.6037 57.6957C42.4357 57.8861 43.4131 57.4939 44.211 57.2906C45.0835 57.0684 45.4828 56.8149 46.0761 56.664C46.1956 56.6336 46.2834 56.6185 46.3579 56.5809C46.4325 56.5434 46.4911 56.4836 46.5212 56.423C46.5514 56.3623 46.5514 56.3026 46.4928 56.2793C46.1215 56.1315 45.5183 56.6619 44.7497 56.8889C44.1122 57.0772 43.6545 57.2811 43.24 57.4774C42.5207 57.8179 42.0853 57.8696 41.5537 58.1934C41.0742 58.4855 41.0505 58.7295 40.6067 59.0086C40.3005 59.2011 39.7795 59.2283 39.3491 59.2808C38.8015 59.3476 38.1234 59.4845 37.5154 59.575C37.0383 59.6461 36.6128 59.7108 36.1837 59.8238C35.9603 59.8825 35.8424 60.0272 35.783 60.1628C35.7569 60.2222 35.8406 60.2685 35.9733 60.2916C36.106 60.3146 36.311 60.3146 36.4606 60.2922C36.942 60.2201 37.3477 60.0584 37.9108 60.0356C38.3088 60.0194 38.6506 59.8629 38.9324 59.6891C39.2524 59.4917 39.6278 59.3342 39.7023 59.3039C40.0568 59.1597 38.8618 59.6502 38.3879 59.8161C38.2653 59.859 38.1518 59.9064 38.15 59.8921C38.1182 59.6365 39.0038 59.4565 39.5235 59.3492C39.9043 59.2706 40.2481 59.1387 40.6182 59.0475C41.0523 58.9405 41.4321 58.8219 41.7574 58.7232C42.1523 58.6034 42.5557 58.4444 42.8375 58.2034C42.9722 58.0881 43.1486 58.0067 43.1641 57.9239C43.214 57.6579 42.0871 57.7953 41.524 57.6899C41.3001 57.6479 41.1383 57.5541 41.0052 57.3742C40.7561 57.0374 40.9892 56.7244 41.0775 56.6189C41.2746 56.3836 41.8457 56.1966 42.1275 56.0154C42.4204 55.827 42.822 55.6988 43.2067 55.5551C43.4573 55.4615 43.7397 55.4263 43.9611 55.4337C44.0662 55.4373 44.1533 55.4562 44.1986 55.5535C44.4417 56.0761 43.2445 56.5696 42.8828 56.867C42.4714 57.2052 43.7077 56.107 44.2567 55.902C44.6754 55.7456 45.1003 55.9092 45.1757 55.8866C45.901 55.669 43.4504 56.0735 42.1772 56.2781C41.5484 56.3792 41.2564 56.6927 41.0784 56.7919C40.4331 57.1513 42.4954 56.1957 42.8965 56.1129C43.5351 55.9811 42.6214 57.3527 41.7614 58.042C41.6164 58.1582 41.5528 58.2163 41.5226 58.15C41.272 57.5993 42.1386 56.9842 42.5717 56.7013C42.7805 56.565 42.0268 56.9643 41.4206 57.0634C41.1121 57.1139 41.3735 56.6945 41.5062 56.5363C41.6144 56.4074 41.8173 56.332 41.9061 56.3089C42.5741 56.1352 40.5233 57.3092 39.4396 57.696C39.2585 57.7606 39.1281 57.7645 39.0531 57.7424C38.8874 57.6934 38.9186 57.4645 38.9479 57.2309C39.0019 56.8004 40.1576 56.184 40.825 55.6614C40.928 55.5808 40.5464 55.9531 40.3249 56.1948C40.0899 56.4513 39.5408 56.4519 39.3784 56.4748C39.3053 56.4851 39.2452 56.423 39.2151 56.3476C39.1849 56.2722 39.1849 56.1677 39.2288 56.1063C39.2972 56.0109 39.8319 56.0147 40.4088 56.0446C40.6124 56.0551 40.6049 56.1342 40.561 56.2023C40.347 56.5342 39.7192 56.7977 39.5994 57.0849C39.5525 57.1972 39.4218 57.3115 39.3775 57.462C39.3553 57.5373 39.3624 57.6125 39.4795 57.5912C40.3173 57.4391 40.4842 57.072 40.9582 56.958C41.073 56.9303 41.1943 56.9055 41.2692 56.9125C41.6918 56.952 41.4925 57.5364 41.4046 57.8906C41.3412 58.1462 40.5206 58.3068 39.8257 58.4654C39.5821 58.521 39.5115 58.4598 39.4813 58.362C39.4058 58.1174 39.6562 57.8415 40.0547 57.6231C40.3968 57.4356 40.8685 57.2979 41.0775 57.2594C42.2316 57.047 39.7192 57.8994 39.231 58.1411C39.1173 58.1974 39.0677 58.2615 39.0522 58.255C38.6013 58.0644 40.4505 57.5708 42.0645 57.185C42.4918 57.0828 40.257 57.6885 38.6133 58.0952C38.3096 58.1703 38.2689 58.2317 38.4731 58.2025C39.8433 58.0065 40.3076 57.8858 40.5881 57.8555C40.7192 57.8413 40.8392 57.8849 40.9142 57.9377C40.9892 57.9904 41.0185 58.0651 40.9897 58.1484C40.9273 58.3284 40.4896 58.4883 39.7675 58.6463C38.8097 58.8558 37.2421 58.9862 35.6458 59.1217C35.0136 59.1754 34.7525 59.2274 34.8071 59.2505C35.9671 59.7411 37.7932 58.9721 38.0147 58.9194C38.1175 58.8949 38.2068 58.8816 38.091 58.859C36.9848 58.6428 35.1998 58.8662 34.1286 58.9262C33.9684 58.9352 33.92 59.0011 34.1534 59.1512C34.836 59.5899 35.5158 59.8616 35.5753 59.9519C35.6981 60.1383 35.1324 60.2237 34.9704 60.2916C34.8832 60.3281 34.7206 60.3146 34.5573 60.2549C33.7795 59.9703 33.5952 59.5769 33.4163 59.3499C33.2173 59.0972 32.8852 58.9423 32.4121 58.7463C31.5514 58.3897 30.0184 57.903 29.3648 57.6222C29.1873 57.546 28.9498 57.5237 28.7577 57.4561C28.6709 57.4255 28.6534 57.3735 28.7115 57.3579C29.297 57.2006 30.2758 57.779 31.1496 58.133C31.8236 58.406 32.113 58.6236 32.4529 58.8579C32.7793 59.0828 33.1488 59.1075 33.2819 59.1675C33.6294 59.324 33.7106 59.5741 34.1832 59.6807C34.3802 59.7252 34.5688 59.7561 34.7459 59.8088C34.8321 59.8345 34.9229 59.8466 34.7778 59.8543C33.6293 59.9152 32.3296 59.4872 31.3475 59.1389C30.8201 58.9519 30.8137 58.6861 30.503 58.5424C30.3477 58.4705 30.1631 58.4136 29.9266 58.3912C29.5745 58.3579 29.5125 58.0225 29.1278 57.8259C28.6673 57.5905 28.1528 57.2839 27.3097 56.8235C26.864 56.5802 26.4062 56.3632 26.1244 56.1362C25.7992 55.8743 25.4299 55.7286 25.2217 55.5702C25.006 55.406 24.6613 55.276 24.4376 55.1101C24.2086 54.9402 24.1563 54.7931 24.1851 54.7102C24.2016 54.6628 24.3897 54.6423 24.5383 54.6718C24.8891 54.7412 25.1894 54.9429 25.6318 55.0931C26.1716 55.2765 27.0487 55.6205 28.274 55.9595C28.8423 56.1167 29.3528 56.1939 29.4921 56.2326C30.02 56.3792 27.0984 55.4462 26.0511 54.9972C25.9298 54.9452 25.8151 54.9139 25.8133 54.8985C25.7925 54.7187 26.8144 55.018 27.6443 55.2672C27.7796 55.3078 27.8528 55.2461 27.6926 55.1857C26.4564 54.7194 25.1627 54.7025 25.1321 54.6346C24.9931 54.3265 26.4008 54.7021 26.715 54.7172C27.3724 54.749 25.3429 54.4912 25.0132 54.4758C24.8696 54.4691 25.5967 54.4758 25.7205 54.4832C25.8122 54.4888 24.7545 54.521 23.9242 54.521C23.1022 54.521 25.5133 54.416 26.4141 54.3477C27.5318 54.2629 28.4147 54.3549 28.6951 54.4149C29.3229 54.5491 30.0078 55.0461 30.7218 55.2975C31.1273 55.4403 31.3435 55.5621 31.6093 55.5845C31.7348 55.5951 31.8166 55.6517 31.7447 55.6897C30.9466 56.1118 29.1291 55.7286 28.4337 55.6454C27.6313 55.5493 26.999 55.3367 26.6272 55.028C26.3567 54.8034 26.6698 54.5369 26.8468 54.4162C26.9748 54.3291 27.3194 54.34 27.8204 54.3997C29.103 54.5527 29.2427 54.8976 29.4362 55.0635C29.4871 55.1072 29.5392 55.1538 29.2911 55.1769C27.6444 55.3301 26.6156 54.9438 26.2269 54.8834C25.4088 54.7562 28.1457 55.018 28.9019 55.1242C29.0439 55.1441 29.0954 55.1991 28.7302 55.1624C27.5568 55.0446 26.6422 54.8234 26.4208 54.7179C26.2434 54.6335 26.0795 54.5369 26.0494 54.4237C26.0273 54.3409 26.6964 54.4599 27.9323 54.8046C28.8147 55.0507 30.1054 55.5376 30.4329 55.7762C30.7769 56.0267 28.4253 55.94 27.0057 55.8119C26.4914 55.7655 26.4062 55.7286 26.9027 55.8626C28.4882 56.2904 29.9217 56.7674 30.5563 57.0537C31.0938 57.2962 31.5219 57.3721 31.5374 57.3952C31.6313 57.5347 30.6113 56.9675 29.4748 56.5533C27.8615 55.9654 27.3239 55.8644 27.1441 55.8031C26.2513 55.4984 28.3818 56.7525 28.7426 57.0324C29.6157 57.7099 26.0236 56.6194 25.5492 56.4234C25.3655 56.3475 27.1899 56.4506 29.304 56.7294C30.1048 56.835 30.3344 56.9036 30.5137 56.9419C31.3015 57.11 27.4428 55.8495 26.9551 55.7139C26.6473 55.6284 27.7534 55.8459 28.7963 56.0966C30.3959 56.4812 25.3722 55.2909 24.8401 55.2081C24.6271 55.1749 24.5423 55.1402 24.6142 55.1398C25.9605 55.1313 27.7605 56.0274 28.3712 56.2632C29.0413 56.522 26.4994 56.0314 26.0068 55.8572C24.103 55.1837 29.3581 56.3306 30.0118 56.4293C30.1339 56.4477 30.219 56.4818 30.1032 56.4449C29.6635 56.3049 29.2161 56.1061 29.1118 55.9853C29.0476 55.9109 30.6521 56.3732 32.6477 56.9761C33.4248 57.2108 33.6768 57.34 33.8566 57.4165C34.0363 57.493 34.1242 57.5228 33.7594 57.5382C33.3946 57.5536 32.5745 57.5536 31.6834 57.4864C29.833 57.3468 28.6845 57.1014 28.5056 57.0485C28.4791 57.0406 28.7954 57.0702 29.7073 57.2872C30.6193 57.5043 32.1716 57.9076 33.0445 58.1527C33.9174 58.3978 34.0638 58.4724 33.7146 58.3466C32.4947 57.9071 31.1136 57.4043 30.2709 57.1406C29.9411 57.0374 29.8675 56.9516 29.793 56.8907C29.7184 56.8299 29.6599 56.7851 29.7761 56.8441C30.2008 57.0599 31.4243 57.6251 33.0054 58.2584C33.6371 58.5114 33.9715 58.5928 34.0642 58.5942C34.2454 58.5969 32.7467 57.9058 30.9579 57.099C30.2877 56.7967 30.077 56.7253 29.9567 56.7092C29.8365 56.6932 29.8072 56.738 29.9532 56.8208C30.3634 57.0536 31.1341 57.2508 31.9013 57.4914C33.3892 57.9579 33.7106 58.2928 33.8295 58.3154C34.3738 58.419 32.2071 57.8723 31.5836 57.6899C31.4679 57.656 31.3764 57.6297 31.4043 57.6665C31.8061 58.1967 33.5295 58.6974 34.1663 59.1274C34.3666 59.2627 34.1881 59.2736 34.0394 59.2288C33.2112 58.9791 32.3846 58.4163 31.9821 58.1051C31.8437 57.9982 31.7003 57.9012 31.7145 57.7958C31.7295 57.6846 32.6402 57.8537 33.3529 57.9309C34.293 58.0327 31.7358 56.8475 30.8918 56.4024C30.6365 56.2677 30.8385 56.2709 31.2805 56.3607C32.4404 56.5965 33.5011 56.9036 33.9018 57.0548C34.0797 57.1219 32.3322 56.6067 30.6464 56.0561C30.0482 55.8607 29.9563 55.849 30.1014 55.8563C31.3809 55.9201 32.5816 56.48 33.502 56.8134C33.6583 56.87 33.7106 56.919 33.6968 56.9122C32.9631 56.5502 31.5539 56.0609 31.3892 55.9095C31.2973 55.8249 32.579 56.3125 33.9391 56.9607C34.6643 57.3063 34.8936 57.5079 35.1155 57.6505C35.2436 57.7328 35.191 57.8976 35.0006 57.9746C33.9905 58.3828 32.768 57.8415 32.5865 57.7722C31.4618 57.3431 35.0401 58.2919 35.3667 58.4204C36.2498 58.768 32.8594 57.5251 32.1774 57.2762C30.9995 56.8463 35.6915 57.8542 35.9161 57.9682C36.5117 58.2708 33.778 57.7356 32.6043 57.5016C31.2442 57.2304 35.601 57.8542 36.1784 58.0427C36.3323 58.0929 35.4058 58.142 34.3545 58.1495C33.8807 58.1529 35.8957 58.4734 36.2125 58.5947C37.2058 58.9749 34.2182 58.2181 33.7265 58.2097C32.5112 58.189 35.7794 58.353 35.6378 58.3982C34.1777 58.8651 32.5293 58.4435 32.5279 58.5111C32.5241 58.7079 34.2333 58.6847 35.8899 58.6929C36.4673 58.6957 36.4921 58.5367 36.5072 58.3781C36.564 57.781 36.4335 57.3309 36.5085 57.1761C36.6582 56.8672 35.1936 57.3273 34.7796 57.3497C34.6238 57.3581 34.5999 57.4169 34.658 57.4549C34.972 57.6603 35.5442 57.5835 36.4451 57.6512C36.7908 57.6771 36.5817 57.9755 36.5081 58.0959C36.4314 58.2213 36.2569 58.2928 36.2116 58.3303C36.0853 58.4352 36.7575 58.4136 37.0526 58.3613C37.886 58.2137 38.0275 57.4812 38.533 57.1619C38.7479 57.0261 38.063 57.6722 37.6477 58.1554C37.5029 58.3238 37.558 58.4883 37.5576 58.6089C37.5574 58.6572 37.6743 58.6698 37.8074 58.6476C38.4977 58.5326 38.8281 58.1737 39.1689 57.9617C39.2426 57.9158 39.302 57.8714 39.3469 57.8259C39.3917 57.7804 39.421 57.7356 39.3189 57.7125C39.2168 57.6894 38.9825 57.6894 38.8032 57.7118C37.7781 57.8399 37.203 58.5942 37.1147 58.6696C37.0265 58.7448 36.7308 58.7304 36.465 58.7155C36.3429 58.7086 36.2578 58.6707 36.1979 58.603C36.0541 58.4407 36.0785 58.1438 36.1371 57.8349C36.1792 57.6128 36.6385 57.4491 37.0224 57.328C37.177 57.2792 37.3477 57.3861 37.4231 57.4694C37.5688 57.6302 37.44 57.7944 37.278 57.9298C36.7501 58.3708 35.8131 58.5191 35.6361 58.5566C35.5441 58.5762 35.459 58.6091 35.5455 58.5498C36.2319 58.0795 36.9643 57.9619 37.2598 57.8933C38.191 57.6773 36.9678 59.0156 36.7597 59.2951C36.6191 59.484 36.5223 59.7547 36.4198 60.041C36.2316 60.5665 34.7179 60.3594 34.7321 60.4572C34.7523 60.5962 35.072 60.6763 35.1315 60.7666C35.1599 60.8097 35.0738 60.8569 34.9851 60.88C34.5879 60.9833 34.1277 60.7075 33.7722 60.6317C33.4299 60.5587 33.1514 60.4206 32.8253 60.3076C32.518 60.2012 32.4414 59.9833 32.1742 59.8174C31.9211 59.6603 31.671 59.5461 31.4203 59.3648C31.0855 59.1228 30.6663 59.0328 30.4436 58.8744C30.1683 58.6787 29.8072 58.5956 29.6594 58.4218C29.5052 58.2404 29.1575 58.0977 28.8757 57.9239C28.6085 57.759 28.27 57.6297 27.9589 57.4862C27.7706 57.3993 27.4996 57.3735 27.1899 57.2447C26.8338 57.0967 26.4647 57.0114 26.1395 56.8376C25.8265 56.6703 25.4299 56.5434 25.0008 56.3849C24.6239 56.2458 24.3347 56.0609 24.083 55.8945C23.8694 55.7533 23.6539 55.653 23.5647 55.6001C23.352 55.4738 24.1838 55.8481 24.774 55.9762C26.0858 56.2609 26.6671 56.4818 27.1867 56.6101C27.6057 56.7136 27.8528 56.9036 28.2074 57.1153C28.6441 57.3759 29.2977 57.6722 29.8498 57.9601C30.2411 58.1641 30.6628 58.3674 31.2539 58.5487C31.5279 58.6328 31.7287 58.7001 31.8911 58.7452C31.9747 58.7683 32.0243 58.8201 31.9812 58.8506C31.859 58.9374 31.348 58.9115 30.8749 58.8891C30.3988 58.8665 30.1924 58.5956 29.9998 58.4143C29.6817 58.1148 28.9197 58.0072 28.6099 57.901C28.1902 57.7572 27.9434 57.6451 27.6926 57.4712C27.3735 57.25 27.0265 57.2069 26.8495 57.1542C26.7633 57.1285 26.6724 57.1164 26.6564 57.1535C26.5441 57.4146 27.2014 57.6125 27.6895 57.8245C27.7943 57.87 27.8528 57.9148 27.8977 57.908C27.9425 57.9012 27.9718 57.8415 27.9429 57.7808C27.8171 57.5163 27.2351 57.4033 26.8495 57.2225C26.4078 57.0154 26.2287 56.8149 26.0352 56.649C25.9842 56.6054 25.9322 56.5587 25.8581 56.5506C25.784 56.5425 25.6961 56.5723 25.6509 56.6176C25.6056 56.6629 25.6056 56.7226 25.6495 56.7608C25.8306 56.9185 26.2251 56.9951 26.7279 57.1005C27.1613 57.1914 27.5848 57.3273 28.1923 57.5751C28.5817 57.734 28.6818 58.0053 29.0355 58.1414C29.7547 58.418 30.0415 58.6091 30.4706 58.6924C30.8666 58.7693 31.0187 58.9414 31.0932 58.9493C31.5843 59.0015 30.4001 58.6707 30.1183 58.4973C29.797 58.2997 29.4824 58.1882 29.0981 58.0445C28.7515 57.9149 28.3889 57.7953 28.0179 57.6824C27.6578 57.5728 27.3824 57.4033 27.1007 57.2449C26.8273 57.0913 26.2304 56.9218 25.7108 56.7393C25.6119 56.7046 25.5186 56.6791 25.5027 56.6862C25.2639 56.791 26.2233 57.0539 26.743 57.2062C27.1705 57.3315 27.5848 57.4631 28.1479 57.6659C28.5247 57.8015 28.8291 57.9148 29.0217 58.1036C29.3307 58.4064 29.8649 58.5489 29.9687 58.5944C30.2233 58.706 29.3368 58.1438 28.9938 57.9164C28.6676 57.7001 28.27 57.3735 28.0175 57.1847C27.9537 57.1371 27.9434 57.072 27.9136 57.0188C27.8585 56.9203 28.8495 57.1884 30.4906 57.7084C31.6892 58.0883 32.0544 58.2769 32.4086 58.4958C32.7761 58.7229 33.5029 58.8653 34.0642 58.9264C34.4485 58.9683 35.2442 59.0468 36.659 59.1147C38.5346 59.2047 39.8044 59.1079 40.2464 59.0104C41.3786 58.7605 41.5794 58.4598 41.7876 58.271C42.0552 58.0283 42.3782 57.856 42.822 57.6976C43.251 57.5444 44.0024 57.5536 44.538 57.4785C45.0094 57.4124 45.3071 57.2676 45.7509 57.1318C46.2553 56.9774 46.5496 56.8448 46.9197 56.7393C47.3363 56.6207 47.7034 56.5434 48.0882 56.415C48.3481 56.3284 48.8262 56.2863 49.2997 56.3087C49.4566 56.3161 49.4217 56.3759 49.3627 56.4139C49.0926 56.5879 48.5359 56.7226 48.0766 56.8742C47.7133 56.9942 47.4407 57.1309 47.0853 57.3189C46.7539 57.4942 46.2869 57.5228 45.9315 57.6061C45.5641 57.6922 45.1633 57.7645 44.7187 57.9526C44.3707 58.0998 44.0681 58.2769 43.639 58.4132C43.2715 58.5298 43.003 58.6698 42.4856 58.8579C42.0132 59.0295 41.583 59.107 41.0802 59.2654C40.6741 59.3934 40.3404 59.5597 39.9113 59.688C39.5097 59.8081 39.1867 59.9516 38.7575 60.0578C38.3467 60.1594 38.0329 60.2839 37.5301 60.4423C37.1036 60.5767 36.643 60.7365 36.1837 60.8874C35.8481 60.9977 35.5176 60.9936 35.4133 61.001C34.9878 61.0315 36.2542 60.9637 36.6097 60.8958C36.9952 60.8222 37.1427 60.6618 37.2319 60.6317C37.7754 60.4483 35.459 60.5563 34.8089 60.3307C34.5484 60.2403 34.4224 60.134 34.319 60.0288C34.1957 59.9034 34.2147 59.6973 34.2586 59.4863C34.3212 59.1858 35.0401 59.0781 35.3969 58.9047C35.874 58.6729 36.6359 58.3104 37.2159 58.0298C37.7318 57.7801 37.9406 57.5093 38.4726 57.2529C38.9864 57.0053 39.6553 56.8756 40.0711 56.7844C40.1575 56.7654 40.2481 56.7543 40.2055 56.7466C39.5792 56.6335 38.3044 57.0385 37.2359 57.2438C36.3443 57.4151 35.6081 57.4323 34.4557 57.4482C33.8436 57.4566 33.4177 57.1472 33.1359 56.9734C33.0689 56.932 32.9739 56.9055 32.914 56.8677C32.5741 56.6532 35.0099 57.5228 35.6032 57.7713C35.8549 57.8767 36.0767 57.9909 36.4016 58.0436C36.5499 58.0677 36.6678 58.0814 36.816 58.0293C37.5502 57.7715 37.7045 57.5093 38.28 57.3656C38.9784 57.1912 39.8914 57.1915 40.6169 57.1164C41.015 57.101 41.3141 57.0562 41.4765 56.9659C41.551 56.9204 41.6096 56.8756 41.7587 56.7389" stroke="black" stroke-linecap="round"/>
<path d="M32.8977 4.32949C32.7747 3.63345 32.6274 2.98998 32.4939 2.40686C32.331 0.016775 31.7091 -0.027286 33.4322 0.0167745C34.5495 0.0453446 35.9231 0.0167902 37.8532 0.0167903C41.7074 0.495963 45.0111 1.45434 51.0677 3.8503C55.1277 5.02808 60.4119 8.89192 64.2662 13.4338C69.8604 20.0263 73.2748 27.6825 71.9746 31.643C71.424 34.039 54.9059 23.976 50.5171 21.1011C39.4889 14.6532 36.1853 12.6779 42.5048 16.3263C38.252 13.9856 34.17 12.7059 34.5334 11.9963C34.3142 11.4001 34.0159 9.01432 33.7066 7.60985C33.3991 6.21352 33.0966 4.84011 32.8977 4.32949Z" fill="black"/>
<path d="M21.8977 13.3295C21.7747 12.6335 21.6274 11.99 21.4939 11.4069C21.331 9.01678 20.7091 8.97271 22.4322 9.01677C23.5495 9.04534 24.9231 9.01679 26.8532 9.01679C30.7074 9.49596 34.0111 10.4543 40.0677 12.8503C44.1277 14.0281 49.4119 17.8919 53.2662 22.4338C58.8604 29.0263 62.2748 36.6825 60.9746 40.643C60.424 43.039 43.9059 32.976 39.5171 30.1011C28.4889 23.6532 25.1853 21.6779 31.5048 25.3263C27.252 22.9856 23.17 21.7059 23.5334 20.9963C23.3142 20.4001 23.0159 18.0143 22.7066 16.6099C22.3991 15.2135 22.0966 13.8401 21.8977 13.3295Z" fill="black"/>
<path d="M10.8977 20.3295C10.7747 19.6335 10.6274 18.99 10.4939 18.4069C10.331 16.0168 9.70913 15.9727 11.4322 16.0168C12.5495 16.0453 13.9231 16.0168 15.8532 16.0168C19.7074 16.496 23.0111 17.4543 29.0677 19.8503C33.1277 21.0281 38.4119 24.8919 42.2662 29.4338C47.8604 36.0263 51.2748 43.6825 49.9746 47.643C49.424 50.039 32.9059 39.976 28.5171 37.1011C17.4889 30.6532 14.1853 28.6779 20.5048 32.3263C16.252 29.9856 12.17 28.7059 12.5334 27.9963C12.3142 27.4001 12.0159 25.0143 11.7066 23.6099C11.3991 22.2135 11.0966 20.8401 10.8977 20.3295Z" fill="black"/>
<path d="M35.736 4.50873C35.8477 3.78246 35.9815 3.11104 36.1027 2.5026C36.2506 0.00871491 36.8153 -0.0372596 35.2506 0.00871434C34.236 0.0385252 32.9887 0.00873073 31.236 0.00873082C27.736 0.508714 24.736 1.50871 19.236 4.00873C15.5492 5.23766 10.7506 9.2693 7.25061 14.0085C2.17051 20.8872 -0.930101 28.876 0.250613 33.0085C0.750613 35.5085 15.7506 25.0085 19.736 22.0087C29.7506 15.2808 32.7506 13.2197 27.0119 17.0266C30.8739 14.5842 34.5806 13.2489 34.2506 12.5085C34.4497 11.8864 34.7206 9.39702 35.0015 7.93155C35.2807 6.47458 35.5554 5.04152 35.736 4.50873Z" fill="black"/>
<defs>
<clipPath id="paint0_diamond_60_29_clip_path"><circle cx="21.2506" cy="37.0084" r="4"/></clipPath><linearGradient id="paint0_diamond_60_29" x1="0" y1="0" x2="500" y2="500" gradientUnits="userSpaceOnUse">
<stop stop-color="white"/>
<stop offset="1" stop-color="#1EFF00"/>
</linearGradient>
</defs>
</svg>
